<?xml version="1.0" standalone="no"?>
<!DOCTYPE svg PUBLIC "-//W3C//DTD SVG 1.1//EN" "http://www.w3.org/Graphics/SVG/1.1/DTD/svg11.dtd" >
<svg xmlns="http://www.w3.org/2000/svg">
<metadata></metadata>
<defs>
<font id="goodvibrations_script" horiz-adv-x="1024" >
<font-face units-per-em="2048" ascent="1638" descent="-410" />
<missing-glyph horiz-adv-x="530" />
<glyph horiz-adv-x="0" />
<glyph unicode="&#xd;" />
<glyph unicode=" "  horiz-adv-x="530" />
<glyph unicode="&#x09;" horiz-adv-x="530" />
<glyph unicode="&#xa0;" horiz-adv-x="530" />
<glyph unicode="!" horiz-adv-x="716" d="M246 55q6 35 34.5 59.5t63.5 24.5t55.5 -24.5t14.5 -59.5t-35 -59.5t-64 -24.5t-55 24.5t-14 59.5zM399 221l2 15l521 991q18 35 75 41h95l10 -4l4 -13q-12 -37 -324 -495l-362 -537z" />
<glyph unicode="&#x22;" horiz-adv-x="651" d="M82 852l55 485q4 37 36 67t69 30q57 -1 57 -58t-80 -260q-41 -104 -108 -264h-29zM397 852l58 487q4 41 33.5 68t70.5 27q57 -1 57 -60q0 -51 -81 -258q-39 -96 -107 -264h-31z" />
<glyph unicode="#" horiz-adv-x="1527" d="M51 469l62 96h319l172 289h-348l59 98h349l282 473h113l-287 -473h287l284 473h111l-285 -473h304l-58 -98h-305l-170 -289h330l-60 -96h-329l-285 -469h-109l281 469h-283l-284 -469h-109l283 469h-324zM541 565h286l172 289h-284z" />
<glyph unicode="$" horiz-adv-x="919" d="M-137 109q2 16 37 49h18q84 -88 221 -115l305 557q-123 156 -122 260q0 152 153 242q129 76 291 76l57 106l66 12l-68 -125q152 -27 152 -174q0 -53 -31 -94t-82 -41q-39 0 -65.5 28t-24.5 66q4 86 92 86q51 0 64 -34q-14 98 -129 122l-240 -434q137 -184 137 -303 q0 -182 -178 -297q-156 -100 -346 -100l-57 -109l-70 -12l72 125q-199 37 -252 109zM193 37q141 0 251 88q121 94 121 231q0 90 -84 201zM451 913q0 -49 73 -172l221 398q-6 0 -14 2h-14q-98 0 -182 -65.5t-84 -162.5z" />
<glyph unicode="%" horiz-adv-x="1271" d="M-68 -162q330 348 963 1131q-197 -170 -328 -170q-72 0 -118 51q-94 -72 -179 -70q-143 4 -143 183q0 92 43 192q53 125 154 225q121 121 235 119q150 -4 150 -151q0 -102 -71 -246t-151 -217q27 -49 84 -49q96 0 275 139q55 43 209 213l86 102q70 74 104 78q25 0 25 -14 l-1260 -1526h-76zM242 915q0 -90 69 -90q51 0 115 54q-31 47 -31 100q2 88 70 88q61 0 61 -61q0 -10 -4 -23q39 55 82 158q51 125 51 198q1 93 -75 93q-74 0 -160 -103q-66 -76 -109 -168q-70 -147 -69 -246zM571 121q0 115 66 239q59 115 151 199q114 102 216 98 q152 -4 151 -157q0 -162 -137 -355q-150 -209 -303 -204q-143 4 -144 180zM686 74q0 -90 72 -90q82 0 209 159q45 57 89 172t44 185q0 92 -76 92q-74 0 -160 -103q-66 -76 -108 -167q-70 -147 -70 -248z" />
<glyph unicode="&#x26;" horiz-adv-x="1241" d="M23 293q0 217 194 364q168 127 399 152q-59 78 -57 184q6 201 219 334q186 115 404 113q246 -4 245 -180q0 -57 -34.5 -104.5t-89.5 -47.5q-41 0 -70 28.5t-27 69.5q2 94 99 92q55 0 67 -36q2 12 2 24q0 96 -139 98q-205 4 -399 -167q-68 -59 -115 -146q-53 -94 -53 -174 q0 -45 18 -82q145 6 170 4q96 -8 96 -69q0 -59 -102 -60q-115 0 -207 90q-184 -27 -302 -176t-118 -338q0 -147 83 -239.5t229 -92.5q170 0 323 113q164 123 172 287q4 88 -94 133q-76 35 -174 35q-106 0 -195 -39q-111 -49 -125 -139q-16 -109 136 -189q18 -10 18 -33 q0 -12 -10 -12q-61 0 -143.5 96.5t-82.5 169.5q0 119 140 179q104 45 241 45h363q94 0 227 55q162 68 162 151q0 29 -18 58q-18 27 6 26q10 0 16 -10q31 -47 31 -90q0 -125 -180 -199q-143 -59 -287 -57q76 -63 76 -160q0 -195 -211 -327q-186 -119 -391 -119t-347 88 q-166 104 -165 297zM702 786q51 -61 148 -61q68 0 68 25q-1 30 -64 34q-82 6 -152 2z" />
<glyph unicode="'" horiz-adv-x="323" d="M158 801q0 12 16 16q141 49 158 178q-29 -20 -60 -20q-35 0 -55 25.5t-14 60.5t34.5 59.5t63.5 24.5q84 0 84 -113q0 -168 -205 -237q-23 -8 -22 6z" />
<glyph unicode="(" horiz-adv-x="716" d="M51 406q0 131 33 258q63 248 319 507q285 289 613 375q16 4 26 4q20 0 21 -12q0 -23 -47 -35q-309 -82 -543 -368q-305 -377 -305 -789q0 -166 57 -278q74 -145 224 -146q18 0 36 2q39 4 39 -14q0 -33 -92 -33q-188 0 -293 178q-88 150 -88 351z" />
<glyph unicode=")" horiz-adv-x="1060" d="M29 -96q0 23 49 35q309 80 543 368q303 375 303 789q0 166 -58 278q-74 145 -223 146q-14 0 -35 -2q-41 -4 -41 14q0 25 54 31q18 2 38 2q186 0 293 -179q90 -150 90 -350q1 -125 -34 -258q-66 -250 -318 -508q-283 -291 -614 -374q-16 -4 -27 -5q-20 0 -20 13z" />
<glyph unicode="*" horiz-adv-x="882" d="M33 760q0 37 43 37h297q-70 156 -117 256q-6 12 -6 22q0 23 20 23q33 0 56 -43q57 -106 120 -236l238 240q14 14 27 14q16 0 16 -24q0 -33 -29 -64l-174 -188h279q31 0 31 -21q0 -43 -70 -45l-270 -10q61 -127 108 -215q2 -4 2 -12q0 -18 -14.5 -40t-32.5 -22 q-27 0 -76 115q-18 47 -59 139l-223 -244q-10 -8 -27 -8q-51 0 -51 39q0 16 18 35l205 207l-270 -10q-41 -2 -41 55z" />
<glyph unicode="+" horiz-adv-x="937" d="M279 438q0 57 47 58q49 0 118 -2q139 -4 166 -5q20 88 72 297q10 43 43 43q23 0 14 -34q-23 -86 -61 -306q55 0 266 -2q35 0 35 -28q0 -27 -41 -27q-61 0 -272 -12q-20 -106 -48 -281q-6 -35 -69 -35q-37 0 -29 35q16 70 70 277q-135 -8 -289 -19q-23 -2 -22 41z" />
<glyph unicode="," horiz-adv-x="313" d="M0 -203q0 10 16 17q139 47 156 178q-27 -20 -57 -21q-35 0 -55.5 24.5t-14.5 59.5t35 59.5t63 24.5q84 1 84 -110q0 -166 -207 -238q-20 -6 -20 6z" />
<glyph unicode="-" horiz-adv-x="831" d="M301 457q0 39 35 39q43 0 450 -9q43 0 43 -32q1 -23 -34 -23q-162 0 -459 -35q-16 -2 -27 23q-8 18 -8 37z" />
<glyph unicode="." horiz-adv-x="425" d="M211 55q6 35 34.5 59.5t63.5 24.5t55.5 -24.5t14.5 -59.5t-35 -59.5t-63 -24.5q-35 0 -55.5 24.5t-14.5 59.5z" />
<glyph unicode="/" horiz-adv-x="1122" d="M41 -70q0 14 18 31q289 266 523 608q82 123 247 369q193 276 379 457q231 223 404 223q62 0 117 -31q31 -16 30 -43q0 -14 -14 -14q-10 0 -38 14.5t-50 14.5q-131 0 -438 -340q-182 -203 -570 -699q-348 -446 -559 -588q-20 -14 -35 -14q-14 0 -14 12z" />
<glyph unicode="0" horiz-adv-x="1028" d="M106 244q0 176 132 413q117 213 262 355q180 174 344 174q190 -1 190 -228q0 -186 -112 -428q-106 -225 -246 -370q-174 -182 -346 -183q-109 0 -170 82q-53 72 -54 185zM229 172q0 -154 125 -154q145 0 312 244q113 164 196 373q94 231 94 362q0 150 -110 150 q-141 0 -311 -246q-119 -168 -205 -373q-100 -236 -101 -356z" />
<glyph unicode="1" horiz-adv-x="774" d="M123 12q4 10 553 987q-164 -147 -334 -251h-8l-8 16l4 12q156 117 194 150q102 82 181 166q29 31 40 41q29 25 52 26l63 6l12 -2v-10l-10 -20l-612 -1123q-12 -8 -107 -14l-18 4z" />
<glyph unicode="2" horiz-adv-x="999" d="M2 0q2 12 95 114.5t106 106.5q29 8 45 -2q639 565 639 807q0 90 -99 90q-109 0 -208 -108q-84 -90 -129 -209l-9 -8h-24l-4 12q53 152 161 256q123 121 269 121q82 0 134 -45t52 -125q0 -141 -311 -437q-88 -84 -430 -366q229 -117 280 -117q72 0 150 72l82 78l14 -13v-8 q-203 -244 -323 -244q-39 0 -320 121l-143 -112z" />
<glyph unicode="3" horiz-adv-x="937" d="M20 27v10l15 12l10 4q66 -31 143 -30q162 0 326 156.5t164 318.5q0 127 -143 127q-29 0 -144 -29l-14 6l-2 19l8 10q172 70 293 155q178 127 178 258q0 74 -80 74q-117 0 -282 -182h-11l-14 12v10q184 225 373 226q155 0 155 -127q0 -225 -454 -387q111 0 184 -39 q92 -49 92 -150q0 -182 -215 -348q-203 -156 -391 -156q-123 0 -191 50z" />
<glyph unicode="4" horiz-adv-x="950" d="M162 373v16q27 49 151 176l176 178q156 174 277 334q43 57 90 72q61 12 121 22l14 -6l2 -14q8 -55 -753 -731l444 8l133 258q16 31 117 39l12 -6l2 -12q-20 -41 -137 -273h49l12 -8l-10 -23l-14 -10l-60 -2q-84 -176 -192 -375q-6 -6 -61.5 -18t-69.5 -12l-10 2v8 q29 59 204 389z" />
<glyph unicode="5" horiz-adv-x="911" d="M-25 -2v14l13 15l8 4q53 -18 127 -19q174 0 349 173t175 347q0 131 -133 132q-59 0 -141 -41q-8 -4 -129 -74l-13 4v12q12 39 159 294t169 276q39 16 103 16q35 0 101 -5t101 -5q109 0 166 43l8 -4q-63 -170 -350 -170q-47 0 -158 6l-225 -391q137 92 275 92 q90 0 147 -45t57 -133q0 -207 -231 -392q-221 -174 -432 -174q-109 0 -146 25z" />
<glyph unicode="6" horiz-adv-x="862" d="M76 197q0 246 286 567q217 244 498 438l12 2l15 -22q-20 -33 -70 -72l-80 -63q-150 -139 -264 -289q-276 -360 -276 -606q0 -53 29.5 -90t82.5 -37q133 0 264 196q121 182 121 324q0 82 -69 82q-92 0 -185 -121q-70 -92 -112 -205l-9 -10l-20 -2l-4 12q33 135 135 254 q117 135 244 135q145 0 145 -162q0 -180 -172 -365.5t-350 -185.5q-102 0 -161.5 58.5t-59.5 161.5z" />
<glyph unicode="7" horiz-adv-x="999" d="M20 4q12 51 472 500q291 285 530 510l-326 8q-78 0 -129 -37q-27 -18 -63 -70q-29 -39 -51 -41l-7 5v12q88 170 150 215q72 51 248 51q184 0 291 -14q29 20 41 20l8 -12l-4 -14q-72 -82 -402 -426q-199 -207 -459 -535q-63 -78 -137 -166q-14 -8 -147 -20l-12 6z" />
<glyph unicode="8" horiz-adv-x="860" d="M29 176q0 199 417 508q-35 84 -34 164q0 133 104.5 233.5t239.5 100.5q188 0 188 -158q0 -172 -309 -442q39 -92 39 -230q0 -152 -129 -263.5t-283 -111.5q-96 0 -162 52q-72 55 -71 147zM123 170q0 -150 143 -150q115 0 196 93.5t81 208.5q0 109 -86 323 q-334 -244 -334 -475zM545 915q0 -94 76 -290q98 80 165 178q84 121 84 223q0 115 -112 115q-86 0 -149.5 -68.5t-63.5 -157.5z" />
<glyph unicode="9" horiz-adv-x="890" d="M119 -27l8 13q496 348 627 864q20 80 20 147q0 141 -112 142q-141 0 -273 -172q-121 -160 -121 -308q0 -115 103 -114q160 0 280 284l8 7l23 -2l2 -11q-55 -143 -147 -254q-119 -143 -240 -143q-68 0 -106.5 45t-38.5 115q0 180 183 388t361 208q98 0 154 -78 q47 -68 47 -170q0 -254 -268 -559q-207 -236 -488 -420h-12z" />
<glyph unicode=":" horiz-adv-x="524" d="M127 55q6 35 34.5 59.5t63.5 24.5t55.5 -24.5t14.5 -59.5t-35 -59.5t-63 -24.5q-35 0 -55.5 24.5t-14.5 59.5zM352 514q6 35 35 59.5t64 24.5t55 -24.5t14 -59.5t-34.5 -59.5t-63.5 -24.5t-55.5 24.5t-14.5 59.5z" />
<glyph unicode=";" horiz-adv-x="522" d="M82 -203q0 10 16 17q141 47 158 178q-29 -20 -59 -21q-35 0 -55.5 24.5t-14.5 59.5t34.5 59.5t63.5 24.5q84 1 84 -110q0 -168 -205 -238q-23 -8 -22 6zM352 514q6 35 35 59.5t64 24.5t55 -24.5t14 -59.5t-34.5 -59.5t-63.5 -24.5t-55.5 24.5t-14.5 59.5z" />
<glyph unicode="&#x3c;" horiz-adv-x="673" d="M229 367q426 264 437 262l14 -6l2 -15q-25 -39 -158 -137q-43 -31 -174 -123l-2 -278l-10 -21l-14 -6q-8 2 -17 6q-20 53 -43 158z" />
<glyph unicode="=" horiz-adv-x="937" d="M301 457q0 39 35 39h301q201 0 201 -41q0 -23 -35 -23q-98 0 -294 -17.5t-173 -17.5q-35 0 -35 60zM301 662q0 39 35 38h301q201 0 201 -41q0 -23 -35 -22q-98 0 -294 -17.5t-173 -17.5q-35 0 -35 60z" />
<glyph unicode="&#x3e;" horiz-adv-x="673" d="M55 55q0 27 164 148q72 53 168 121l2 278q6 12 10 19l17 8l18 -8q19 -44 74 -314l-420 -262l-14 -2q-6 0 -17 4z" />
<glyph unicode="?" horiz-adv-x="782" d="M246 55q6 35 34.5 59.5t63.5 24.5t55.5 -24.5t14.5 -59.5t-35 -59.5t-64 -24.5t-55 24.5t-14 59.5zM371 342q33 139 168 315q82 100 243 304q72 90 72 161q0 115 -139 115q-137 0 -223 -100q-37 -41 -31 -76q10 35 52 62.5t79 27.5q70 0 70 -76q0 -49 -43.5 -86 t-92.5 -37q-47 0 -74.5 30t-27.5 77q0 111 164 205q111 63 221 63q80 0 133 -35q59 -43 59 -118q0 -122 -133 -265q-86 -86 -256 -262q-135 -141 -202 -319q-6 -14 -19 -15q-27 0 -20 29z" />
<glyph unicode="@" horiz-adv-x="1957" d="M154 360q0 418 344 730q334 301 757 301q260 0 443 -113q213 -129 231 -373q16 -197 -90 -393q-96 -178 -264 -311q-55 -45 -156.5 -77t-175.5 -32q-82 -8 -133 47.5t-51 139.5q0 57 22 131q-201 -330 -360 -330q-76 0 -115 76q-31 57 -31 141q0 244 218 504 q74 88 181 144t216 56q123 0 201 -81q18 -20 18 -41q0 -43 -45 -33q-29 92 -121 92q-109 0 -256 -152q-104 -109 -186 -243q-109 -180 -109 -303q0 -88 64 -88q158 0 405 473q51 98 78 127q41 45 98 41q12 0 54 -9q33 -6 55 -4q-47 -45 -129 -200q-117 -223 -117 -338 q0 -104 105 -105q145 0 280 121q115 102 187 254q78 166 77 336q0 252 -174 383q-158 117 -415 117q-403 0 -705.5 -302.5t-302.5 -705.5q0 -23 4 -72q23 -258 227 -399q184 -127 455 -127q332 0 633 203q6 8 16 8q20 0 21 -23q0 -12 -15 -18q-322 -215 -669 -215 q-311 0 -514 141q-229 158 -254 455q-2 27 -2 67z" />
<glyph unicode="A" horiz-adv-x="1458" d="M37 225q0 238 156 520q80 147 180 261q-119 55 -172 106q-80 76 -80 178q0 66 29 88q10 16 24 17q20 0 21 -27q0 -12 -10.5 -38.5t-10.5 -41.5q0 -66 88 -143q68 -59 148 -96q480 534 997 534h2q141 0 238 -57q114 -70 114 -203q0 -188 -237 -303q-172 -84 -400 -105 q-111 -10 -217 -10q-221 0 -401 58q-362 -510 -363 -795q0 -203 176 -203q168 0 383 180q150 125 297 299q152 182 240 347q65 120 122 120h1q45 0 45 -63q0 -57 -51 -115q-94 -104 -168 -256.5t-101 -292.5q-12 -68 -12 -114q0 -139 86 -140q100 0 228 160q111 139 176 291 q14 33 32 33q6 0 7 -8q0 -8 -7 -25q-51 -135 -182 -311q-53 -72 -137 -129q-94 -63 -172 -64q-154 0 -154 229q0 131 74 287q-412 -489 -721 -489q-63 0 -121 24q-147 63 -147 297zM539 1004q156 -51 356 -52q86 0 229 13q211 18 357 96q196 105 196 287q0 96 -88 143 q-70 39 -174 39q-260 0 -495 -160q-176 -119 -381 -366z" />
<glyph unicode="B" horiz-adv-x="2189" d="M23 133q0 96 83 152q72 47 173 47q84 0 176 -33q37 -12 129 -63q117 -63 168 -89q135 129 356 551q231 442 414 650l116 133q-150 26 -315 26h-12q-618 0 -899 -270q-154 -147 -154 -297q0 -143 145 -188q47 -14 93 -15q123 0 211 99q68 75 68 125q0 7 -1 14q0 14 21 14 q23 0 22 -31v-2q-18 -119 -112.5 -194.5t-217.5 -75.5q-57 0 -104 16q-217 76 -217 277q0 231 252 395q203 133 463 170q184 27 358 27q240 0 449 -45q88 80 153 80q14 0 14 -7q0 -12 -34 -34q-49 -31 -60 -56q465 -119 465 -364q0 -205 -250 -305q-119 -47 -254 -54 q332 -106 387 -290q16 -55 17 -103q0 -219 -248 -356q-209 -115 -446 -115q-45 0 -95 6q-311 39 -544 142q-201 -150 -435 -150q-39 0 -88 6q-100 12 -166 60q-82 55 -81 147zM143 137q0 -72 56 -112q49 -37 123 -41q14 -1 28 -1q191 0 357 126q-299 157 -411 157h-1 q-63 0 -105 -33q-47 -35 -47 -96zM838 106q295 -124 563 -124h4q203 0 373 112q194 128 194 320q0 168 -178 252q-84 39 -244 88q-127 39 -137 61q0 41 76 41q35 0 108.5 -6t112.5 -6q129 2 258 107.5t129 232.5q0 133 -168 211q-84 39 -192 63q-111 -154 -412 -670 q-260 -449 -410 -608q-27 -31 -77 -74z" />
<glyph unicode="C" horiz-adv-x="1454" d="M121 434q0 180 68.5 376t181.5 335q-33 125 -33 264q0 111 24 205q8 28 28 28h1q20 0 12 -38q-10 -55 -10 -131q0 -117 27 -259q297 381 743 381q307 0 465 -155q113 -111 113 -271q0 -244 -215 -401q-195 -141 -447 -141q-72 0 -143 10q-367 53 -508 348 q-47 -61 -102 -233q-70 -215 -70 -398q0 -371 295 -458q109 -33 237 -33q246 0 449 119q121 72 203 180q53 72 133 233q10 20 22 21q10 0 11 -17q-1 -8 -9 -24q-86 -170 -133 -236q-76 -106 -196 -190q-225 -158 -486 -158q-158 0 -311 66q-350 150 -350 577zM469 1051 q125 -324 498 -365q37 -4 100 -4q227 0 395 119q186 133 187 352q0 133 -88 229q-126 136 -357 136q-219 0 -424 -140q-176 -123 -311 -327z" />
<glyph unicode="D" horiz-adv-x="2103" d="M6 131q0 94 86 152q74 49 172 49q106 0 254 -64q53 -25 234 -121q158 152 383 580q242 459 395 631q-229 137 -498 137q-102 0 -207 -22q-211 -45 -381 -177q-202 -155 -202 -346q0 -154 147 -198q53 -16 94 -17q121 0 205 96q66 76 72 144q2 14 18 14q27 0 23 -33 q-18 -119 -111.5 -194.5t-216.5 -75.5q-57 0 -104 16q-184 63 -217 248q-6 33 -7 64q0 152 138 284q195 188 583 246q84 12 172 12q295 0 549 -135l51 60q94 86 172 114q27 10 41 11q14 0 15 -7q0 -8 -41 -43q-47 -39 -53 -47q-45 -61 -97 -139q203 -135 314.5 -335.5 t111.5 -442.5q0 -332 -233 -516q-195 -154 -453 -154q-43 0 -92 6q-315 39 -555 146q-190 -154 -420 -154q-41 0 -92 6q-98 12 -166 60q-84 55 -84 145zM141 133q0 -66 49.5 -105.5t116.5 -43.5q16 -1 32 -1q193 0 359 123q-141 70 -309 140q-45 18 -100 18 q-61 0 -104.5 -34.5t-43.5 -96.5zM817 111q295 -129 565 -129q223 0 392 142t192 361q4 39 4 101q0 436 -344 706l-373 -604q-219 -354 -358 -504q-29 -31 -78 -73z" />
<glyph unicode="E" horiz-adv-x="1794" d="M43 297q0 190 164 340q137 127 340 188q102 31 207 35q-96 33 -166 94q-81 72 -81 148q0 7 1 14q20 227 323 387q272 143 553 144q137 0 248 -45q147 -59 148 -172q0 -115 -152 -216q-137 -90 -260 -90q-29 0 -29 13q0 6 101 49q111 45 141 78q78 86 78 172 q0 139 -203 157q-23 2 -72 2q-217 0 -434 -108q-254 -127 -286 -320q-4 -25 -5 -47q0 -113 119 -170q14 -8 217 -61q101 -28 101 -74q0 -6 -2 -12q-8 -37 -111 -37q-29 0 -87 2t-87 2q-356 0 -516 -207q-104 -135 -105 -282q0 -182 158 -275q129 -74 326 -74q203 0 419 76 t380.5 205t164.5 225q0 43 -51 60.5t-51 27.5q2 12 35 12q30 -1 55 -12q92 -45 92 -129q0 -141 -217 -278q-158 -102 -342 -158q-242 -74 -493 -74q-240 0 -406 84q-215 109 -215 326z" />
<glyph unicode="F" horiz-adv-x="2138" d="M102 324q0 104 37 217q23 70 98.5 144.5t143.5 74.5q4 0 4 -2q0 -6 -72 -58q-133 -94 -157 -237q-8 -47 -9 -98q0 -236 201 -390q176 -135 406 -145q17 -1 34 -1q314 0 570 247q215 205 371 561h-17q-16 2 -31 2h-67q-254 0 -332 -111q-12 -14 -22 -14q-12 0 -13 21 q0 6 2 12q84 186 324 186q78 0 184 -20q61 156 174 340q94 156 131 192q-453 268 -737 268q-180 0 -336 -102q-178 -115 -178 -287q0 -82 57 -123q80 -57 174 -57q63 0 152 41q102 45 104 100q2 47 33 48q8 0 8 -17q0 -8 -6 -26q-29 -88 -111.5 -139.5t-179.5 -51.5 q-106 0 -192 57q-129 86 -129 234q0 193 174 317q158 115 356 115q141 0 295 -57q303 -113 543 -287l45 45q39 31 80 31q63 0 74 -43q6 -29 -11 -29q-10 0 -24 16q-10 4 -23 5q-29 0 -92 -54q395 -245 558 -245h1q72 0 101 45q20 33 32 32q12 0 13 -20q-1 -9 -7 -29 q-29 -94 -161 -94q-143 0 -410 172q-92 59 -158 104q-90 -90 -168 -260q-18 -43 -112 -260q74 -30 199 -30h8q14 0 41.5 4t42.5 4q25 0 24 -13q0 -36 -175 -36h-28q-113 2 -137 8q-147 -399 -317 -592q-268 -305 -707 -305q-281 0 -471 151q-205 164 -205 439z" />
<glyph unicode="G" horiz-adv-x="1480" d="M-98 -600q0 145 282 270q209 92 408 121t434 33q145 246 207 504l8 34q-113 -109 -270 -194q-221 -121 -412 -121q-254 0 -381 213q-86 139 -86 334q0 209 105 428q-135 139 -136 307q0 158 127 287q20 20 33 20q8 0 8 -8q0 -10 -14 -29q-90 -115 -90 -247 q0 -143 104 -269q14 29 45 80q137 223 365 365q240 147 491 147q256 0 400 -141q96 -96 96 -227q0 -193 -192 -336q-215 -160 -572 -166h-17q-313 0 -521 141q-98 -213 -99 -403q0 -139 54 -242q63 -119 184 -160q61 -20 135 -20q141 0 320 82q197 88 245 205 q80 190 174 190q37 0 55 -30q16 -26 16 -55q0 -6 -1 -13q-37 -279 -279 -676q242 -4 449 -53q43 -10 43 -29q0 -12 -25 -12q-18 0 -34 4q-155 37 -410 37h-51q-158 -229 -453 -389q-270 -147 -481 -148q-63 0 -115 18q-150 55 -149 148zM6 -618q0 -82 160 -82q180 0 412 118 q268 138 415 351q-494 -10 -784 -183q-203 -117 -203 -204zM350 999q180 -135 457 -135q340 0 565 183q166 135 166 292q0 100 -72 170q-104 101 -290 101q-217 0 -439 -156q-201 -139 -323 -342q-33 -55 -64 -113z" />
<glyph unicode="H" horiz-adv-x="2828" d="M-14 207q0 219 135 350q82 80 137 82q27 0 27 -8q0 -10 -23 -21q-78 -35 -141 -137q-57 -94 -68 -186q-4 -33 -4 -70q0 -217 182 -336q156 -102 385 -102q92 0 164 16q694 158 977 899q-53 0 -123 -32q-27 -12 -47 -13q-29 0 -8 35q39 68 127 78h80q127 319 299 663 q-137 -12 -414 -41q-500 -63 -618 -446q-18 -59 -19 -119q0 -96 49 -160q52 -71 145 -71h3q43 0 90 16q86 31 141 150q45 98 45 180q0 12 -7 30.5t-7 22.5q0 12 12 12q14 0 23 -16q23 -47 22 -104q0 -100 -66.5 -189.5t-160.5 -124.5q-57 -20 -111 -20q-133 0 -222 98 t-89 234q0 45 12 94q59 236 281 352q176 94 461 119q154 10 459 33q94 170 200 170q74 0 74 -64q0 -68 -90 -113q-74 -38 -148 -38h-4q-45 -88 -147 -359q-78 -201 -117 -309q117 0 348.5 -17.5t345.5 -17.5q61 178 174 414q170 358 273 393q76 27 112 27q12 0 13 -5 q0 -6 -29 -20q-45 -23 -166 -231q-150 -258 -258 -576q127 0 164 14q16 6 27 7q14 0 14 -7q0 -6 -25 -24q-59 -43 -198 -55q-27 -82 -78 -246q-55 -186 -55 -297q0 -127 77 -127q33 0 64 22q117 86 258 371q12 25 25 29q12 4 12 -13q0 -12 -8 -30q-80 -170 -123 -242 q-129 -215 -285 -215q-149 0 -149 187q0 115 59 315q18 59 84 246q-74 0 -694 26q-131 -393 -394 -670q-349 -370 -796 -370h-2q-279 0 -471 135q-215 154 -215 422zM2183 1481q131 20 131 71q1 27 -22 27q-2 1 -4 1q-26 0 -105 -99z" />
<glyph unicode="I" horiz-adv-x="1902" d="M121 557q82 80 137 82q27 0 27 -8q0 -10 -23 -21q-78 -35 -141 -137q-55 -94 -68 -186q-4 -33 -4 -64q0 -233 221 -373q193 -122 443 -122h4q84 0 155 16q381 88 646 451q188 260 270 571q102 393 229 655q-395 -76 -596 -182q-329 -173 -329 -479v-2q0 -98 47 -168 q53 -78 147 -78q41 0 80 14q160 59 160 240q0 88 -31 115q-4 6 4 18t19 12q12 0 20 -14q39 -63 39 -135q0 -123 -93 -214t-216 -91q-142 -1 -234 103q-80 90 -80 207q0 18 2 36q53 520 1088 672q63 141 137 163q20 6 45 7q68 -1 78 -60q1 -7 1 -15q0 -79 -142 -124 q-14 0 -43 -8t-41 -8q-76 -172 -131 -441q-76 -365 -90 -420q-61 -227 -187 -411q-281 -416 -751 -482q-102 -14 -195 -14q-295 0 -498 125q-241 149 -241 424q0 215 135 346zM2107 1481q127 23 127 69q1 29 -26 29q-2 1 -4 1q-26 0 -97 -99z" />
<glyph unicode="J" horiz-adv-x="2043" d="M100 137q86 78 140 80q27 0 26 -8q0 -10 -24 -21q-78 -31 -146 -135q-61 -96 -76 -186q-8 -49 -8 -82q0 -225 221 -363q186 -116 437 -116h4q92 0 155 14q561 127 895 942q59 143 189 537q127 385 252 622q-307 -51 -557 -207q-315 -199 -328 -464v-18q0 -93 37 -163 q49 -90 147 -90q39 0 82 17q170 63 170 254q0 78 -24 100q-14 8 -15 18q0 16 19 17q18 0 37 -19q31 -57 30 -123q0 -96 -61.5 -180t-151.5 -117q-51 -18 -112 -18q-137 0 -221 100q-76 88 -76 215v19q12 313 395 516q285 150 657 197q84 170 191 170q70 -1 76 -60 q1 -5 1 -11q0 -82 -149 -128q-14 0 -44 -8t-42 -8q-88 -186 -158 -478q-39 -174 -122 -520q-76 -287 -215 -555q-135 -260 -408 -436q-309 -201 -657 -201q-287 0 -482 119q-235 140 -235 408q0 231 151 370zM2257 1481q131 23 131 69q0 29 -25 29q-2 1 -5 1q-27 0 -101 -99 z" />
<glyph unicode="K" horiz-adv-x="2443" d="M-12 219q0 215 133 336q72 66 123 70q20 2 20 -9q0 -12 -16 -20q-49 -23 -103 -90q-96 -123 -96 -289q0 -227 189 -352q160 -106 387 -107q84 0 147 15q387 86 662 405q180 209 340 570q211 475 311 677l-293 -28q-176 -18 -301 -54q-190 -53 -315 -182 q-141 -145 -142 -330q0 -96 47 -161q53 -72 146 -72q49 0 94 16q84 31 133 131q41 86 41 187q0 35 -4 65q-4 12 6 13q47 0 47 -115q0 -98 -59 -188q-59 -96 -150 -129q-66 -25 -123 -25q-131 0 -217 102q-82 96 -82 230q0 205 181 350q147 119 372 170q166 37 648 70 q94 170 198 170q78 0 78 -68t-94 -109q-66 -31 -150 -38q-66 -121 -266 -674q-170 -467 -350 -699q-318 -407 -821 -407h-2q-283 0 -486 141q-233 158 -233 428zM1835 573h9q87 0 335 142q293 166 563 399q334 287 527 584q25 39 47 39q18 0 18 -27q0 -14 -14 -39 q-236 -391 -674 -741q-408 -326 -692 -400q-6 2 -6 -20q0 -61 32 -193q39 -154 97 -286q139 -319 366 -320q129 0 242 53q129 57 182 162q8 23 23 29q14 4 14 -12q0 -12 -10 -33q-57 -115 -194.5 -201t-266.5 -86q-166 0 -303 117q-119 98 -195 266q-116 254 -116 486 q0 74 16 81zM2183 1481q130 19 144 78q1 5 1 10q0 18 -20 18h-2q-37 0 -123 -106z" />
<glyph unicode="L" horiz-adv-x="1527" d="M-12 -35q0 182 303 273q128 38 306 38h9q111 0 199 -16q88 137 215 395h-24q-180 0 -324 84q-178 106 -178 291q0 160 153 273q119 90 299 131q27 6 39 6q29 0 29 -13q0 -20 -64 -28q-195 -23 -299 -203q-59 -102 -59 -197q0 -66 29 -129q78 -170 333 -170q45 0 95 7 q6 12 174 438q90 227 204 383q168 227 345 227q78 0 134 -48.5t56 -150.5q0 -307 -279 -581q-264 -258 -577 -311q-74 -154 -180 -353q-14 -23 -43 -69q416 -104 671 -305q90 -70 146 -173q61 -111 61 -217q0 -104 -71 -145q-29 -16 -41 -16t-13 12q0 6 22.5 68.5 t22.5 109.5q0 186 -147 311q-109 94 -320 166q-137 47 -393 97q-276 -387 -571 -388q-100 0 -176 50q-86 57 -86 153zM98 -154q49 -26 116 -26h5q150 0 299 108q123 91 223 234q-96 20 -198 20q-119 0 -228 -28q-282 -74 -282 -208q0 -64 65 -100zM1135 719q285 63 507 305 q234 252 234 530q0 78 -68 78h-2q-121 0 -290 -227q-106 -143 -201 -330q-49 -96 -180 -356z" />
<glyph unicode="M" horiz-adv-x="2775" d="M29 723q0 98 37 209q94 283 358 502q279 229 565 229q197 0 295 -131q90 -119 90 -322q0 -160 -65 -407q-8 -31 -9 -49q0 -16 7 -17q10 0 30 43q127 276 285 496q49 68 130 116t161 48q180 0 180 -240q0 -172 -41 -385q-14 -72 -86 -381q137 252 352 557q276 395 478 395 q124 0 124 -162q0 -103 -57 -245q-225 -555 -225 -866q0 -314 243 -314h15q47 2 47 -12q0 -22 -45 -22q-14 0 -33 2q-358 33 -358 389q0 164 82 411q23 68 157 455q37 104 37 174q0 90 -61 90q-137 0 -398 -368q-86 -123 -253 -433q-170 -315 -213 -444q-37 -111 -115 -111 q-25 0 -48.5 14.5t-23.5 39.5q0 8 4 16q152 328 215 596q70 293 78 594v14q0 185 -104 185q-96 0 -203 -150q-209 -295 -340 -590q-80 -182 -272 -723q-20 -59 -105 -59q-64 0 -64 36q0 5 1 11q121 219 242.5 639t131.5 661q1 22 1 42q0 366 -269 366q-240 0 -500 -240 q-248 -227 -311 -471q-31 -117 -31 -211q0 -170 86 -286q94 -129 258 -129q193 0 310 192q74 121 73 236q0 161 -141 161h-2q-18 0 -41 -2q-47 -6 -47 21q0 14 53 22q31 4 45 5q94 0 147.5 -61.5t53.5 -158.5q0 -139 -98 -262q-90 -111 -228 -170q-64 -28 -136 -28h-5 q-190 0 -317 145t-127 338z" />
<glyph unicode="N" horiz-adv-x="2127" d="M-4 719q0 289 221 536q145 164 330 263q203 106 403 106q195 0 299.5 -107.5t104.5 -304.5q0 -141 -113 -477q-39 -117 -39 -123v-2q6 18 51 103q129 242 285 446q309 403 590 404q227 0 227 -236q0 -143 -119 -434q-199 -485 -225 -563q-63 -186 -63 -330 q0 -246 153 -246q31 0 83 20.5t71 20.5q31 0 31 -24q0 -37 -48 -56q-33 -14 -68 -14h-9q-334 16 -334 346q0 88 20 184q12 61 189 557q152 430 157 558v8q0 112 -104 112h-2q-66 0 -154 -45q-410 -211 -712 -960q-31 -76 -193 -535q-20 -59 -104 -59q-65 0 -65 38q0 4 1 9 q117 211 244 643q131 449 131 670q0 338 -272 338q-205 0 -426 -162q-205 -150 -309.5 -345.5t-104.5 -387.5q0 -158 67 -260q80 -121 230 -121q188 0 323 147q119 131 119 277q0 164 -155 164q-16 0 -35 -5q-27 -2 -27 13q0 16 19 20q51 12 90 13q182 0 182 -193 q0 -166 -135 -311q-154 -164 -381 -164q-186 0 -309 143q-115 135 -115 326z" />
<glyph unicode="O" horiz-adv-x="1579" d="M100 999q0 270 250 439q217 147 502 147q326 0 518 -184q185 -177 185 -471q0 -22 -1 -45q205 139 267 260q10 16 26 16q14 0 15 -12q-1 -13 -11 -29q-119 -186 -305 -307q-8 -100 -47 -219q-86 -268 -328 -485q-258 -233 -528 -234q-254 0 -367 197q-73 125 -73 296 q0 159 59 310q-162 106 -162 321zM211 997q0 -158 88 -235q117 244 319 426q175 155 322 155h2q74 0 141 -36q14 -8 15 -19q0 -20 -31 -10q-27 8 -59 8q-164 0 -365 -229q-160 -182 -240 -365q121 -59 312 -59q369 0 715 186q4 53 4 105q0 279 -148 446q-154 178 -426 178 q-252 0 -442 -147q-207 -158 -207 -404zM311 305q0 -256 168 -338q84 -41 180 -41q233 0 451 230q182 195 270 446q27 76 37 146q-344 -182 -717 -183q-190 0 -327 56q-61 -164 -62 -316z" />
<glyph unicode="P" horiz-adv-x="2027" d="M-51 131q0 96 84 152q72 47 174 47q84 0 174 -31q27 -8 27 -23q0 -8 -15 -8q-8 0 -18 4q-63 25 -119 25q-76 0 -128 -44t-52 -118q0 -70 53 -110q47 -37 119 -41q12 -1 24 -1q229 0 447 214q131 129 356 553q238 446 416 647q33 37 108 114q-131 20 -284 21 q-508 0 -854 -207q-272 -162 -273 -379q0 -90 57.5 -153.5t147.5 -65.5h10q95 0 181 76q82 70 116 172q4 20 17 20q12 0 12 -22q-3 -131 -105 -211q-98 -76 -222 -76h-13q-137 4 -224 92q-80 81 -80 203q0 11 1 23q12 244 313 401q223 117 519 160q190 28 380 28h13 q188 0 344 -30q70 53 153 86q27 10 41 10q12 0 13 -6q0 -12 -33 -35q-47 -31 -92 -76q135 -37 237 -98q215 -129 215 -307q0 -195 -221 -373q-188 -154 -402 -205t-395 -51q-35 0 -65 2q-150 -223 -307 -373q-229 -217 -516 -217q-184 0 -275 82q-59 55 -59 129zM1135 553 q19 -1 38 -1q185 0 375 72q210 78 350 220q162 164 162 327q0 240 -362 322q-111 -154 -285 -465q-188 -338 -278 -475z" />
<glyph unicode="Q" horiz-adv-x="1540" d="M59 -270q4 55 58.5 100t109.5 45q156 0 320 -121q109 -84 330 -248q213 -147 485 -200q51 -10 102 -11q195 0 195 146q0 115 -113 203q-98 78 -221 96q-33 6 -33 27q0 16 27 12q229 -37 340 -172q61 -76 61 -146q0 -49 -30 -96q-80 -121 -328 -121q-313 0 -545 148 q-80 49 -313 274q-154 147 -277 148q-43 0 -87 -28t-48 -69q-2 -27 -16 -26q-18 0 -17 39zM172 1112q0 184 143 322q133 123 324 155q123 20 242 21q317 0 501 -166q195 -172 195 -483q0 -238 -129 -494t-334 -418q-227 -178 -471 -178q-293 0 -401 270q-47 119 -47 248 q0 186 100 410q104 231 264 379q182 168 375 168q81 0 149 -39q14 -8 15 -19q0 -20 -31 -10q-27 8 -61 8q-164 0 -344 -194q-141 -147 -234 -338q-117 -238 -117 -439q0 -84 19 -149q72 -254 309 -254q205 0 424 178q190 156 297.5 364t107.5 425q0 303 -188 488t-494 185 q-72 0 -139 -8q-186 -25 -293.5 -143.5t-107.5 -304.5q0 -31 12 -92.5t12 -92.5q0 -29 -18 -28q-16 0 -33 32q-47 96 -47 197z" />
<glyph unicode="R" horiz-adv-x="2097" d="M39 135q0 113 117 168q63 31 143 31q84 0 184 -35q20 -6 21 -18q0 -10 -15 -11q-8 0 -18 4q-63 25 -119 25q-74 0 -125 -44t-51 -116q0 -147 174 -155q12 -1 24 -1q231 0 435 220q141 152 350 522l242 430q129 223 244 350q-111 10 -224 11q-264 0 -538 -58 q-217 -45 -383 -166q-207 -150 -207 -342q0 -98 64.5 -159.5t164.5 -61.5q127 0 219 98q74 80 78 134q2 27 10 26q20 0 17 -31q-12 -94 -80 -165q-111 -117 -270 -117q-148 0 -232 95q-72 81 -71 200q0 21 2 43q20 221 264 374q197 121 450 158q231 33 441 33q174 0 340 -23 q51 57 73 58q12 0 13 -21q0 -18 -11 -47q57 -8 203 -39q307 -82 307 -274q0 -176 -250 -307q-186 -98 -403 -133q-76 -12 -188 -19q68 -367 227 -610q106 -162 203 -162q160 0 348 383q10 23 24 29t15 -9q0 -6 -6 -20q-94 -213 -156 -297q-121 -170 -268 -170 q-260 0 -428 492q-61 182 -88 340q-98 -195 -154 -287q-102 -166 -207 -281q-240 -260 -559 -260q-190 0 -285 84q-61 55 -61 131zM1348 825q70 6 258 27q170 20 331 129q188 127 189 281q0 137 -184 192q-53 16 -201 39q-12 -23 -201 -328q-115 -184 -192 -340z" />
<glyph unicode="S" horiz-adv-x="1845" d="M-4 332q-1 13 -1 26q-1 144 99 302q108 172 252 239q23 8 39 8q12 0 12 -6q0 -10 -30 -33q-86 -66 -142 -153q-114 -182 -114 -388q0 -239 202 -360q168 -100 426 -100q287 0 512 117q150 78 250 196q117 141 117 289q0 147 -125 248q-68 55 -266 139q-223 96 -289 139 q-156 104 -156 244q0 123 111 231q94 90 225 138q166 59 379 59q178 0 279 -49q141 -70 141 -201q0 -154 -211 -209q-8 -2 -18 -2q-23 0 -23 13q0 25 51 30q125 14 125 137q0 133 -153 197q-78 33 -179 33q-137 0 -313 -64q-102 -37 -174 -102q-88 -80 -88 -174 q0 -119 151 -211q76 -45 241 -119t243 -123q211 -131 211 -313q0 -154 -140 -313q-111 -125 -274 -224q-266 -159 -623 -159h-4q-291 0 -487 112q-240 137 -256 406z" />
<glyph unicode="T" horiz-adv-x="2228" d="M63 385q0 268 144 393q66 57 117 58q33 0 28 -33q-35 -27 -104 -84q-117 -102 -117 -301q0 -244 199 -398q177 -139 412 -139h20q424 10 696 307q111 121 248 381q74 139 215 447q111 240 139 278q-309 98 -620 113q-23 1 -45 1q-243 0 -416 -140q-168 -135 -182 -307 q-1 -16 -1 -31q0 -151 144 -197q45 -14 96 -14q127 0 224 104q72 79 72 131q0 6 -1 11v4q12 10 23 10q18 0 18 -27q-16 -127 -113.5 -207.5t-226.5 -80.5q-184 0 -280 145q-59 88 -60 201q0 199 158 342q178 164 477 164q178 0 389 -64q125 -39 377 -119q96 125 152 125h-2 q10 4 18 4q39 0 39 -41q0 -25 -25 -24q-8 0 -18 2q-1 1 -3 1q-18 0 -104 -83q367 -121 525 -121q150 0 155 94q18 29 27 29q8 0 8 -33t2 -37q-6 -59 -92 -90q-53 -18 -103 -18q-18 0 -36 2q-299 35 -516 131q-98 -156 -189 -404l-149 -407q-96 -225 -209 -354 q-137 -156 -338 -230q-185 -69 -402 -69h-6q-305 0 -516 131q-248 158 -248 444z" />
<glyph unicode="U" horiz-adv-x="1929" d="M-8 752q0 272 196 518q166 205 439 354q238 131 458 131q117 0 209 -41q197 -86 197 -334q0 -86 -23 -184q-27 -117 -208 -526q-158 -354 -158 -523q0 -176 115 -176q150 0 344 283q84 123 192 338l152 301q59 108 114 108q39 -18 39 -61q0 -16 -106 -266 q-117 -274 -129 -322q-49 -188 -49 -315q0 -150 73 -150h4q55 4 56 -16q0 -19 -26 -27q-18 -6 -32 -5q-7 0 -12 1q-149 27 -149 284q0 116 28 257q-55 -96 -125 -184q-215 -276 -413 -277q-96 0 -150 76q-45 66 -45 166q0 166 156 524q186 430 209 518q34 133 34 236v6 q0 141 -75 201q-68 53 -213 53q-225 0 -471 -144q-233 -135 -379 -333q-168 -227 -168 -471q0 -166 84 -279q92 -125 252 -125q236 0 383 227q96 147 96 273q0 147 -135 147q-20 0 -60.5 -8t-60.5 -8q-23 0 -2 18q16 16 35 23q72 29 125 29q157 0 157 -187q0 -164 -114 -317 q-109 -145 -265 -211q-100 -43 -192 -43q-180 0 -289 143q-98 131 -98 318z" />
<glyph unicode="V" horiz-adv-x="2115" d="M45 1032q125 287 436.5 493t622.5 206q125 0 221 -43q197 -88 197 -342q0 -231 -146 -531q-84 -172 -168 -418q-102 -299 -102 -434q0 -94 63 -94q88 0 289 178q127 115 221 223q367 430 367 764q0 129 -45 162q-4 2 -66 18q-47 10 -47 37q0 20 33 21q98 0 168 -101 q63 -90 63 -192q1 -80 -38 -182q-113 -293 -398 -617q-336 -375 -594 -375q-135 0 -135 179q0 252 254 856q164 389 164 606q0 133 -72 178q-90 55 -213 55q-279 0 -577 -225q-291 -219 -389 -487q-53 -145 -54 -271q0 -162 92.5 -264t249.5 -102q172 0 322.5 150.5 t150.5 322.5q0 174 -127 174q-16 0 -46.5 -8t-43.5 -8q-12 0 -12 6q0 12 35 28q57 27 106 27q86 0 136 -68q43 -59 43 -147q0 -195 -203 -367q-195 -164 -393 -164q-184 0 -310 146q-118 138 -118 325q0 140 63 285z" />
<glyph unicode="W" horiz-adv-x="2752" d="M-35 657q0 139 68 295q125 289 418 494q301 211 608 211q123 0 217 -41q197 -86 197 -332q0 -203 -138 -510q-90 -203 -180 -448q-123 -338 -123 -455q0 -72 49 -72q25 0 66 25q115 70 256 266q82 115 225.5 360.5t226.5 360.5q63 88 113 88q41 0 41 -63q0 -78 -100 -306 q-111 -250 -123 -354q-4 -33 -4 -76q0 -198 151 -198h2q178 0 408 207q209 186 287 370q94 225 94 412q0 315 -248 315q-27 0 -53 -2q-45 -12 -70 -12q-35 0 -24 18q25 45 96 45q14 0 26 -2q15 1 30 1q155 0 253 -136q92 -131 92 -316q0 -318 -200 -569q-88 -111 -218 -204 q-240 -176 -448 -176q-252 0 -272 270q-1 18 -1 36q0 113 42 257q-135 -223 -291 -402q-225 -260 -373 -268h-9q-79 0 -114 66q-21 44 -21 111q0 17 1 36q16 211 266 807q166 395 166 608q0 133 -70 176q-88 53 -205 54q-272 0 -561 -236q-272 -223 -371 -491 q-59 -162 -59 -291q0 -145 78 -237.5t221 -92.5q221 0 361 217q88 137 88 266q0 162 -146 162q-14 0 -39.5 -3t-38.5 -3q-20 0 -20 8q0 14 39 27q63 18 119 18q90 0 140 -52t50 -142q0 -164 -131 -316q-119 -135 -283 -205q-66 -28 -144 -28h-5q-182 0 -301 137 q-111 129 -111 315z" />
<glyph unicode="X" horiz-adv-x="1652" d="M-248 -432q0 35 37 86q385 535 1247 1151v32q0 612 -151 642q-33 6 -72 6q-276 0 -545 -268q-18 -14 -45 -15q-14 0 -14 10q0 43 188 177q290 206 490 206h2q113 0 186 -69q92 -86 92 -581v-42l545 377q143 115 287 229q238 188 276 189q16 0 17 -12q0 -33 -85.5 -115 t-394.5 -285q-461 -303 -645 -434q-4 -121 -10 -363q-1 -32 -1 -62q0 -201 24 -288q49 -180 170 -180q123 0 252 160q94 117 159 268q12 27 33 27q8 0 8 -11q0 -14 -6 -26q-94 -203 -219 -350q-174 -207 -338 -207q-166 0 -211 215q-8 39 -8 139q0 90 6 262l10 318 q-805 -586 -1132 -1100q-74 -115 -127 -115q-25 0 -25 29z" />
<glyph unicode="Y" horiz-adv-x="2060" d="M119 1014q139 287 444 495q317 215 627 215q121 0 211 -41q196 -88 196 -315v-2q0 -219 -167 -504q-328 -557 -328 -778q0 -137 121 -137q254 0 516 508q125 242 192 465q4 23 31 45t49 22q37 0 37 -72q0 -55 -16 -127q-154 -678 -365 -1050q223 2 297 12q186 23 272 107 q33 31 33 86q-4 31 6 30q23 0 23 -57q0 -121 -152 -184q-102 -43 -510 -47q-195 -293 -567 -437q-160 -61 -311 -61q-111 0 -201 37q-119 49 -119 145q0 135 246 236q317 131 885 131q207 516 280 792q-180 -397 -415 -557q-119 -80 -246 -80q-106 0 -165.5 60.5 t-59.5 167.5q0 223 303 717q217 352 217 606q0 231 -285 231q-274 0 -575 -229q-287 -217 -398 -483q-70 -166 -69 -304q0 -143 81.5 -237t221.5 -94q213 0 370 233q104 156 105 281q0 135 -125 135q-14 0 -43 -5t-39 -5q-16 0 -16 8q0 14 39 24q53 14 96 15q164 0 164 -168 q0 -164 -140 -326q-125 -147 -288 -215q-74 -31 -148 -31q-174 0 -287 129q-108 122 -108 296q0 153 80 317zM553 -659q0 -55 86 -82q59 -16 131 -17q219 0 436 127.5t334 315.5q-520 0 -815 -170q-172 -98 -172 -174z" />
<glyph unicode="Z" horiz-adv-x="1386" d="M23 115q0 80 59 127q53 45 135 45q139 0 391 -162l692 817q207 244 437 430q-303 86 -592 86q-295 0 -438 -117q-82 -68 -82 -139q0 -74 92 -135q31 -20 31 -31v-2q-2 -20 -56 -6q-57 16 -100 86q-37 63 -37 127q0 168 180 258q143 72 328 72q166 0 367 -60 q115 -37 346 -108q194 153 308 153h1q47 0 83 -24.5t36 -69.5q0 -66 -60 -106q-51 -37 -121 -37q-76 0 -213 35q-92 -86 -258 -301l-262 -344q-213 -262 -641 -615q283 -121 391 -162q248 -98 390 -125q76 -14 172 -14q367 0 395 211q8 53 31 53q18 0 18 -45q0 -16 -2 -39 q-10 -98 -94 -174q-131 -119 -387 -123h-8q-281 0 -957 390q-205 -147 -354 -148q-88 0 -154.5 55.5t-66.5 141.5zM115 106q0 -66 67 -98q48 -24 111 -24h14q149 4 262 102q-20 16 -61 47q-123 72 -209 80q-14 1 -28 1q-50 0 -91 -17q-66 -29 -65 -91zM1841 1384 q114 -32 178 -32h4q121 0 121 94q0 72 -61 72q-86 0 -242 -134z" />
<glyph unicode="[" horiz-adv-x="1198" d="M78 57q0 238 223 660q195 369 393 598q70 82 117 112q63 43 156 43h41q186 1 186 -73q0 -37 -51 -37q-25 0 -76 4t-76 4q-76 0 -96 -10q-156 -78 -426 -556t-270 -663q0 -90 137 -90q25 0 74 4t73 4q86 0 86 -45q0 -47 -254 -47q-238 0 -237 92z" />
<glyph unicode="\" horiz-adv-x="1775" d="M41 1544q27 74 147 74q279 0 699 -567q135 -186 407 -557q223 -301 447 -533q16 -17 18 -31l-14 -12q-156 47 -500 475q-201 256 -606 764q-330 401 -498 402q-16 0 -47 -14.5t-39 -14.5z" />
<glyph unicode="]" horiz-adv-x="1138" d="M35 -25q12 66 100 74q63 4 189 14q119 14 190 95q156 174 317 542q170 387 170 600q0 33 -6 62q-20 8 -67 8q-39 0 -114 -4t-114 -4l-6 4q27 100 299 100q63 0 90 -14q39 -21 39 -80q0 -295 -174 -700q-172 -397 -385 -613q-94 -94 -375 -94q-131 0 -153 10z" />
<glyph unicode="^" horiz-adv-x="757" d="M242 805q4 27 151.5 136.5t184.5 115.5l12 -6q82 -117 225 -234l10 -16q2 -18 -24 -19q-43 0 -144 76q-94 70 -125 113q-238 -172 -278 -180z" />
<glyph unicode="_" horiz-adv-x="1650" d="M16 -90q0 39 35 39h1516q53 -1 57 -58l-14 -14q-473 0 -1161 -14q-49 0 -199 -6q-137 -6 -199 -7q-35 0 -35 60z" />
<glyph unicode="`" horiz-adv-x="432" d="M18 1051q0 43 39 43q27 0 182.5 -122t155.5 -136q0 -18 -20 -19q-12 0 -133 64q-68 33 -136 67q-88 51 -88 103z" />
<glyph unicode="a" horiz-adv-x="716" d="M49 170q0 195 172 401q55 68 143.5 114t172.5 46q100 0 159 -65q14 -16 15 -33q0 -35 -37 -27q-20 74 -94 74q-86 0 -203 -121q-86 -88 -150 -194q-86 -143 -86 -240q0 -70 52 -70q125 0 321 377q41 78 61 100q30 31 69 31h9q10 0 41 -6t45 -2q-47 -47 -112 -182 q-61 -127 -78 -201q-8 -39 -8 -70q0 -53 28 -53h2q94 0 263 344q10 20 24 21q10 0 10 -13q0 -12 -6 -24q-182 -371 -309 -381h-10q-52 0 -81 39q-32 43 -32 104q0 53 21 121q-160 -262 -287 -262q-59 0 -90 59q-25 47 -25 113z" />
<glyph unicode="b" horiz-adv-x="612" d="M39 156q0 100 192 465q80 160 261 516q67 129 139 129h6q10 0 41 -6.5t45 -2.5q-66 -68 -279 -466q-199 -375 -264 -537q-33 -82 -33 -135q0 -80 54 -86q5 -1 10 -1q72 0 184 134q98 117 154 254q33 82 33 147q0 108 -94 108q-8 0 -17 -1q-43 -4 -43 20q0 23 41 23 q12 0 31 -2q172 -25 172 -215q0 -147 -101 -295q-102 -154 -241 -191q-70 -18 -115 -18q-176 0 -176 160z" />
<glyph unicode="c" horiz-adv-x="532" d="M76 197q0 172 119 340q129 184 294 184q143 0 143 -116q0 -12 -1 -25q-4 -39 -37 -80t-70 -41q-18 0 -30 12q69 71 69 150q0 55 -47 55q-106 0 -221 -205q-102 -183 -102 -298v-9q6 -135 112 -135q158 0 338 360q10 23 25 23q8 0 8 -15q0 -8 -6 -22q-78 -180 -152 -266 q-100 -117 -239 -117q-203 0 -203 205z" />
<glyph unicode="d" horiz-adv-x="751" d="M53 164q0 96 53 217q49 106 119 190q129 156 301 156q74 0 140 -37q158 297 237 486q25 58 55 84q26 22 70 23q7 0 14 -1q89 -7 89 -8h-1q-68 -66 -282 -475q-188 -362 -258 -527q-39 -92 -39 -153q0 -66 51 -66q98 0 264 340q10 23 21 23q10 0 10 -17q0 -10 -6 -24 q-164 -375 -326 -375q-59 0 -92 53q-27 47 -27 109q0 35 9 74q-63 -106 -105 -150q-76 -82 -151 -82q-20 0 -43 4q-102 29 -103 156zM156 143q0 -82 55 -82q86 0 250 263q51 79 188 333q-27 25 -61 25q-94 0 -219 -135q-94 -102 -153.5 -214t-59.5 -190z" />
<glyph unicode="e" horiz-adv-x="503" d="M63 188q-2 190 158 383q131 158 271 158q115 0 114 -98q0 -113 -147 -225q-41 -31 -122 -61t-130 -30q-27 -68 -27 -147q0 -133 96 -133q186 0 338 350q12 29 33 29q10 0 10 -13q0 -4 -6 -18q-86 -186 -139 -256q-104 -135 -252 -135q-86 0 -140 55t-57 141zM221 350 q106 0 218 92.5t112 196.5q0 45 -33 45q-57 0 -174 -141q-61 -76 -123 -193z" />
<glyph unicode="f" horiz-adv-x="405" d="M-219 -606v6q0 159 211 659q-25 37 -25 84q0 55 30 91q26 31 68 31q7 0 15 -1q211 477 420 875q76 143 174 143q12 0 43 -6t47 -4q-119 -111 -328 -502q-145 -272 -272 -553q53 -63 72 -180q90 25 170 141q37 55 116 221q6 14 21 15q23 0 10 -29q-78 -172 -127 -242 q-82 -117 -186 -145q2 -31 2 -64q0 -229 -101 -432q-106 -215 -246 -215h-8q-102 4 -106 107zM-109 -600q0 -59 33 -59q63 0 142 147q55 104 84 199q47 159 47 292v11q-18 -2 -37 -2q-49 0 -88 12q-119 -297 -164 -483q-16 -68 -17 -117zM94 55q34 -26 82 -26h4h13 q-8 94 -50 141q-25 -59 -49 -115z" />
<glyph unicode="g" horiz-adv-x="802" d="M-217 -489q0 203 467 366l256 90q35 104 47 228q6 68 6 110q0 37 -4 57q-184 -358 -354 -358q-20 0 -39 4q-109 47 -109 170q0 180 178 393q131 156 299 156q100 0 177 -61q31 -25 30 -54q0 -31 -26 -30q-18 0 -27 24q-29 76 -92 76q-125 0 -285 -211 q-151 -200 -151 -324q0 -86 69 -86q80 0 197 156q100 135 133 242q18 57 61 67q23 4 66 15q14 -90 14 -183q0 -160 -41 -315q80 55 138 133q41 55 122 219q10 23 25 23q12 0 12 -17q0 -10 -6 -22q-88 -184 -139 -252q-70 -94 -174 -152q-78 -221 -252 -407 q-203 -215 -406 -215q-193 0 -192 158zM-172 -524q0 -82 98 -82q219 0 443 307q71 101 116 207q-102 -35 -305 -109q-143 -57 -231 -123q-121 -90 -121 -200z" />
<glyph unicode="h" horiz-adv-x="679" d="M-82 -14l268 555q139 285 295 573q71 129 140 129h6q10 0 43 -6q27 -6 43 -2q-66 -70 -234 -375q-135 -244 -291 -561q154 199 347 307q121 68 178 68q12 0 20 -2q-109 -199 -141 -264q-88 -178 -105 -265q-6 -33 -6 -53q0 -53 37 -55h4q96 0 273 360q10 20 22 21 q10 0 10 -15q0 -14 -6 -26q-178 -383 -329 -383q-129 0 -130 133q0 109 134 321q20 33 20 56q0 35 -41 20q-47 -16 -125 -88q-152 -141 -287 -405q-16 -31 -65 -33q-66 -2 -80 -10z" />
<glyph unicode="i" horiz-adv-x="356" d="M41 147q0 55 25 119l131 336q4 10 4 23q0 27 -25 61l113 2h7q50 0 50 -29q0 -10 -14 -43l-164 -383q-13 -28 -23 -59q-12 -37 -12 -63q0 -61 53 -66h5q110 0 280 348q10 20 23 21q10 0 10 -15q0 -12 -6 -24q-174 -375 -322 -375q-135 0 -135 147zM350 895q4 35 34 59.5 t65 24.5q35 -1 56 -25q16 -19 16 -44q0 -7 -1 -15q-6 -35 -34.5 -59.5t-63.5 -24.5q-36 1 -56 25q-17 20 -17 48q0 5 1 11z" />
<glyph unicode="j" horiz-adv-x="362" d="M-809 -506q0 162 213 270q100 51 262 93l246 61q18 33 65 119q42 86 144 295q-23 -2 -23 16q0 8 4 17l109 237q6 10 6 23q0 27 -27 61l113 2h7q50 0 50 -29q0 -10 -14 -43l-164 -383q-55 -127 -127 -270q201 76 301 213q39 53 123 219q10 20 21 21q10 0 10 -17 q0 -14 -6 -26q-111 -225 -185 -303q-92 -96 -299 -172q-303 -545 -634 -545q-195 0 -195 141zM-760 -522q0 -84 96 -84q121 0 279 143q113 102 213 240q6 8 45 76l-217 -58q-274 -74 -358 -182q-57 -72 -58 -135zM358 895q4 35 34 59.5t65 24.5q37 0 57 -25q15 -18 15 -43 q0 -8 -1 -16q-6 -35 -34.5 -59.5t-63.5 -24.5t-56 25q-17 20 -17 48q0 5 1 11z" />
<glyph unicode="k" horiz-adv-x="706" d="M-76 -14q285 612 563 1128q71 129 140 129h6q10 0 41 -6t45 -2q-145 -152 -483 -848q190 240 344 299q63 25 110 25q90 0 90 -80q0 -119 -129 -195q-100 -59 -233 -71q-23 -57 -23 -119q0 -72 31 -129q37 -72 102 -72q61 0 131 74q61 66 172 280q8 16 17 17q12 0 12 -12 q0 -8 -6 -23q-172 -395 -371 -395q-166 0 -196 176q-4 23 -4 55q0 133 100 180q6 -1 13 -1q36 0 90 18q64 20 98 45q59 47 59 96q0 51 -59 51h-9q-78 -6 -188 -100q-150 -127 -235 -295q-6 -12 -82 -182q-14 -31 -64 -33q-70 -4 -82 -10z" />
<glyph unicode="l" horiz-adv-x="434" d="M66 145q0 66 53 254q106 377 311 723q96 162 197 162q71 0 71 -91q0 -74 -49 -183q-178 -393 -420 -615q-20 -49 -43 -135q-14 -53 -14 -102q0 -115 78 -115q72 0 147 92q12 14 92 154q72 125 86 125q8 0 9 -13q0 -6 -6 -20q-82 -178 -129 -242q-106 -143 -240 -143 q-143 0 -143 149zM246 461q220 223 372 579q33 78 33 131q0 29 -14 29q-20 0 -68 -67q-137 -197 -323 -672z" />
<glyph unicode="m" horiz-adv-x="1038" d="M-76 -10q113 248 279 569q67 129 139 129h6q10 0 41 -6t45 -2q-80 -43 -248 -385q90 113 170 184q125 113 146 127q90 68 133 68q59 0 59 -58q0 -18 -8 -34q-41 -80 -149 -287q164 205 352 311q121 68 176 68q12 0 20 -2q-106 -195 -141 -264q-88 -178 -104 -265 q-4 -23 -4 -49q0 -53 38 -53q104 0 279 354q10 20 21 21q10 0 10 -15q0 -10 -8 -26q-94 -186 -129 -238q-100 -145 -201 -145q-129 0 -129 133q0 109 131 321q20 33 20 56q0 33 -39 20q-119 -39 -294 -291q-102 -145 -121 -231q-40 0 -56 37q-12 27 -12 55q0 10 2 21 q12 80 86 233q66 135 66 170q0 16 -13 16q-31 0 -135 -98q-152 -143 -282 -399q-14 -31 -66 -33q-63 -4 -80 -12z" />
<glyph unicode="n" horiz-adv-x="686" d="M-80 -14q115 250 283 573q35 66 55 90q36 39 81 39h9q10 0 41 -6t45 -2q-80 -43 -248 -385q164 207 351 311q121 68 178 68q12 0 20 -2q-106 -197 -141 -266q-90 -180 -105 -263q-4 -25 -4 -49q0 -53 37 -53q109 0 281 354q10 20 20 21q8 0 8 -15q0 -14 -6 -26 q-88 -176 -129 -238q-100 -145 -202 -145q-127 0 -127 133q0 111 131 321q20 33 20 56q0 33 -39 20q-51 -16 -127 -88q-150 -139 -284 -405q-16 -31 -68 -33q-66 -2 -80 -10z" />
<glyph unicode="o" horiz-adv-x="686" d="M61 182q0 90 43 191q55 127 154 225q117 119 232 119h4q143 -4 143 -180q0 -231 -215 -435q27 -47 98 -47q92 0 187 150q31 49 98 198q6 10 14 11q14 0 15 -17q-1 -4 -5 -14q-70 -162 -114 -225q-96 -139 -215 -140q-70 0 -117 52q-91 -70 -173 -70h-5q-143 4 -144 182z M174 135q0 -90 70 -90q53 0 116 53q-32 50 -32 98q0 91 71 91q61 0 62 -62q0 -12 -4 -22q35 47 63 110q66 141 66 238q0 100 -72 100q-76 0 -162 -102q-63 -74 -106 -168q-72 -154 -72 -246z" />
<glyph unicode="p" horiz-adv-x="688" d="M-348 -547q51 47 248 400q211 379 235 503q-12 -20 -26 -20q-12 0 -13 12l39 92t39 164q0 74 -33 82l101 16q35 2 39 3q34 0 34 -74v-13q-4 -100 -57 -245q211 348 340 348q63 0 98 -51q31 -43 31 -109q0 -96 -53 -215q-47 -106 -119 -190q-133 -158 -299 -158 q-76 0 -139 39l-238 -488q-52 -106 -131 -106h-10q-8 0 -43 8q-25 4 -43 2zM133 68q25 -25 62 -25q90 0 217 137q98 106 156.5 215t58.5 189t-56 80q-88 0 -252 -261q-57 -92 -186 -335z" />
<glyph unicode="q" horiz-adv-x="684" d="M33 178q0 180 178 393q131 156 299 156q96 0 174 -61q33 -27 33 -54q0 -31 -27 -30q-18 0 -26 24q-29 76 -93 76q-106 0 -243 -164q-113 -133 -164 -260q-29 -72 -29 -117q0 -78 64 -78q98 0 319 361q37 59 49 72q27 31 65 31q5 0 11 -1q12 0 41 -5t45 -3 q-111 -170 -293 -596q-174 -410 -188 -510q-27 27 -60 62q-26 28 -26 64q0 40 39 130q106 217 309 656q-80 -131 -143 -209q-92 -113 -185 -113q-23 0 -43 6q-106 47 -106 170z" />
<glyph unicode="r" horiz-adv-x="532" d="M-57 86q-1 2 -1 5q0 8 5 15q109 141 207 396q84 219 108 356q10 63 55 64q35 0 54.5 -32t19.5 -69q0 -94 -117 -174q39 -2 80 -2q96 0 203 10q4 -6 4 -18q0 -45 -47 -139q-156 -309 -156 -394q0 -49 39 -51h1q86 0 253 342q10 20 23 21q10 0 10 -17q0 -8 -8 -24 q-186 -375 -320 -375q-55 0 -85.5 40t-30.5 97q0 53 26 123q18 45 62 121q49 84 65 121q6 16 6 28q0 63 -163 68l-25 -66q-125 -334 -248 -452q-6 -4 -10 -4q-8 0 -10 10z" />
<glyph unicode="s" horiz-adv-x="524" d="M-23 152q0 43 19 79q23 47 61 50q74 152 146 303q117 215 200 227q10 1 20 1q20 0 40 -5q41 -10 41 -35q0 -12 -15 -12q-6 0 -36 12q-25 6 -47 -4q-70 -33 -70 -135q0 -55 26 -125q25 -57 50 -117q24 -61 24 -113v-12q-6 -133 -145 -227l14 -2q9 -1 18 -1q78 0 166 95 q33 35 154 268q6 10 14 11q14 0 15 -15q-1 -6 -13 -35q-39 -84 -90 -172q-106 -186 -256 -186q-33 0 -69 10q-43 -20 -84 -20q-80 0 -131.5 41t-51.5 119zM68 106q0 -79 75 -79h2q21 0 41 8q-76 47 -82 153q-37 -37 -36 -82zM92 276q43 -2 43 -55v-10v-14q0 -102 86 -144 q82 63 90 213v16q0 60 -12 158q-18 121 -18 174q0 23 4 41q-119 -240 -193 -379z" />
<glyph unicode="t" horiz-adv-x="403" d="M68 166q0 178 161 567h-106q-14 0 -14 21q0 25 18 24h123q70 152 149 291q92 162 193 162q70 0 70 -92q0 -106 -140 -361h99q14 0 14 -18q0 -27 -19 -27h-118q-111 -190 -273 -338q-16 -43 -47 -209q-6 -33 -6 -49q0 -82 68 -82q119 0 284 338q10 23 25 23q8 0 8 -13 q0 -10 -6 -22q-113 -242 -199 -324q-59 -57 -139 -57q-63 0 -104 42t-41 124zM244 461q109 108 207 272h-97q-31 -74 -110 -272zM375 778h102q52 92 103 209q32 74 32 130q0 36 -14 36q-25 0 -78 -76q-35 -49 -145 -299z" />
<glyph unicode="u" horiz-adv-x="731" d="M47 131q0 53 74 201q-23 -2 -23 16q0 2 156 314q23 43 80 43h125q-74 -53 -131 -173q-37 -74 -129 -264q-43 -90 -43 -153q0 -68 47 -68t116 80q102 119 306 535q20 43 80 43h110q-68 -55 -141 -203q-121 -242 -137 -326q-6 -33 -7 -49q0 -72 45 -74h1q109 0 270 342 q10 20 22 21q10 0 11 -17q0 -8 -2 -16q-8 -20 -60.5 -115.5t-75.5 -126.5q-98 -139 -190 -139q-115 0 -115 145q0 53 21 117q-150 -262 -277 -262q-133 0 -133 129z" />
<glyph unicode="v" horiz-adv-x="536" d="M135 356q-12 -20 -26 -20q-12 0 -13 12l39 92t39 164q0 74 -33 82l101 16q35 2 39 3q34 0 34 -74v-13q-4 -104 -59 -247q-72 -184 -72 -258q0 -59 56 -60q123 0 258 338q-27 57 -27 131q0 117 78 189q39 37 76 37t37 -33q-1 -4 -11 -37q-92 -289 -162 -422 q-141 -270 -301 -270q-114 0 -114 114q0 88 61 256z" />
<glyph unicode="w" horiz-adv-x="974" d="M47 131q0 53 74 201q-23 -2 -23 16q0 2 156 314q23 43 80 43h125q-74 -53 -131 -173q-37 -74 -129 -264q-41 -88 -41 -151q0 -72 45 -72q94 0 270 338q27 53 137 279q20 43 78 43h125q-29 -16 -82 -76q-49 -84 -113 -215q-96 -199 -96 -303q0 -70 53 -74h7q154 0 295 356 q-29 63 -29 125q0 121 76 195q37 37 71 37q35 0 35 -33q0 -2 -10 -37q-82 -276 -154 -418q-137 -266 -299 -266q-23 0 -45 4q-90 20 -90 154q0 61 19 122q-156 -276 -273 -276q-131 0 -131 131z" />
<glyph unicode="x" horiz-adv-x="681" d="M-70 -27q0 25 27 25q8 0 14 -6q16 -16 43 -17q94 0 211 179q84 129 125 266q19 95 19 150v5q-2 55 -37 56q-45 0 -96 -86q-39 -72 -127 -236q-8 -16 -19 -16q-8 -2 -8 12t8 31q78 164 111 215q86 136 169 136q6 0 11 -1q94 -10 94 -141q0 -47 -12 -117q41 80 104 166 q86 115 140 129q12 2 24 2q59 0 57 -63q-2 -27 -27.5 -46.5t-53.5 -19.5q-41 0 -52 35q-152 -147 -221 -357q-8 -41 -8 -77q0 -147 86 -148q78 0 160 119q33 47 125 225q10 20 22 21q10 0 10 -17q0 -8 -4 -16q-100 -197 -131 -242q-98 -139 -221 -139q-68 0 -115 68 q-35 51 -35 116q0 8 1 17q0 14 2 41q-158 -311 -316 -312q-45 0 -73 29q-6 6 -7 14z" />
<glyph unicode="y" horiz-adv-x="817" d="M-356 -506q0 162 213 270q100 51 262 93l246 61q80 137 176 461q-96 -170 -148 -236q-111 -141 -213 -141q-133 0 -133 129q0 53 25 105q16 31 49 96q-23 -2 -23 16q0 2 156 314q23 43 80 43h125q-27 -16 -76 -74q-80 -135 -184 -363q-43 -94 -43 -153q0 -68 47 -68 t116 80q141 164 322 535q20 43 80 43h110q-55 -37 -90 -105q-53 -100 -127 -313l-106 -324q201 76 301 213q39 53 123 219q10 20 20 21q12 0 13 -17q-1 -10 -9 -26q-117 -236 -182 -303q-92 -96 -301 -172q-303 -545 -635 -545q-195 0 -194 141zM-307 -522q0 -84 98 -84 q117 0 277 143q117 106 215 240q4 8 45 76l-219 -58q-270 -74 -359 -182q-57 -72 -57 -135z" />
<glyph unicode="z" horiz-adv-x="698" d="M-395 -473q0 59 39 119q70 104 303 196q43 16 415 135q37 119 37 195q0 91 -60 91q-7 0 -15 -1q-84 -41 -103 -41q-23 0 -22 21q0 14 18 20q139 43 229 180q25 37 25 76q0 43 -28.5 70.5t-71.5 27.5q-84 0 -164 -120q-33 -49 -103 -199q-8 -18 -20 -21q-12 -2 -12 15 q0 12 8 28q33 63 121 231.5t245 168.5q60 0 100 -33q36 -30 36 -83v-11q-8 -166 -201 -283h4q133 0 137 -133v-12q0 -70 -22 -137q121 47 194 147q45 59 121 219q10 23 25 23q12 0 12 -15q0 -10 -8 -22q-94 -195 -133 -244q-78 -100 -224 -160q-168 -465 -610 -596 q-47 -14 -88 -14q-76 0 -130 43t-54 119zM-324 -496q0 -94 95 -94q162 0 346 184q161 162 227 332q-131 -39 -260 -76q-168 -53 -248 -100q-63 -39 -110 -104q-49 -72 -50 -142z" />
<glyph unicode="{" horiz-adv-x="755" d="M18 606q0 14 25 45q166 16 229 66q70 57 103 213l53 258q49 176 145 239q90 59 281 60h8q23 0 23 -12q0 -10 -11.5 -22.5t-21.5 -12.5q-174 0 -242 -92q-43 -59 -84 -263q-51 -252 -116 -331q-80 -96 -273 -131q166 -31 211 -111q18 -33 19 -100q0 -82 -27 -207 q-16 -70 -33 -137q-18 -82 -18 -142q0 -92 63 -125q45 -25 148 -24q14 2 14 -17q0 -29 -20 -28h-11q-203 0 -268 71q-35 37 -35 134q0 92 29 217q6 27 20.5 82t20.5 81q12 53 12 107q0 113 -98 154q-45 18 -133 18q-12 0 -13 10z" />
<glyph unicode="|" horiz-adv-x="993" d="M453 -473v2007h88v-2007h-88z" />
<glyph unicode="}" horiz-adv-x="993" d="M41 -254q0 31 29 31q178 0 256 96q47 61 110 272q66 221 137 306q92 106 293 143q-209 37 -209 188q0 90 91 389q27 88 26 140q0 74 -65 102q-43 18 -136 19q-14 0 -14 8q0 14 27 39h10q207 0 264 -72q29 -37 29 -98q0 -90 -64.5 -272.5t-64.5 -270.5q0 -49 20 -76 q41 -53 197 -67q12 0 12 -11q0 -14 -31 -45q-150 0 -243 -71q-72 -55 -119 -205q-27 -90 -82 -271q-51 -152 -150.5 -220t-300.5 -68h-10q-12 0 -12 14z" />
<glyph unicode="~" horiz-adv-x="993" d="M324 864q92 164 200 154q43 -4 125 -37t123 -37q76 -6 113 72q2 8 24 4q23 -2 19 -8q-86 -174 -203 -164q-43 4 -123 40t-125 40q-66 4 -106 -68q-2 -8 -27 -6t-20 10z" />
<glyph unicode="&#xa1;" />
<glyph unicode="&#xa2;" horiz-adv-x="647" d="M70 819q0 170 118 340q129 186 295 187h13l73 188q41 106 88 180q20 33 31 33q6 0 6 -21q0 -18 -10 -36q-14 -25 -53 -131q-63 -172 -84 -224q109 -35 106 -153q-2 -51 -28 -88q-33 -39 -82 -39q-43 0 -71 27.5t-26 70.5q4 94 97 92q55 0 69 -37q8 74 -45 86 q-59 14 -147 -53q-66 -51 -115 -119q-125 -172 -119 -336q6 -135 113 -135q158 0 338 361q10 23 25 22q8 0 8 -12q0 -10 -4 -25q-76 -180 -148 -262q-98 -113 -229 -119q-31 -72 -92 -215q-78 -188 -78 -286q0 -63 41 -74q23 -6 22 -18q0 -25 -32 -15q-74 23 -74 121t74 272 q18 43 94 215q-174 16 -174 203z" />
<glyph unicode="&#xa3;" horiz-adv-x="1173" d="M49 92q0 59 51 92q45 29 107 29q84 0 170 -49q45 -27 147 -105q86 74 174 211q16 25 140 240q-37 4 -70 4q-88 0 -147 -22q-8 -4 -15 -7q-10 0 -10 27q0 12 6 16q57 29 166 29q41 0 92 -6q373 651 668 651q59 0 103 -29t44 -86q0 -84 -88 -196q-72 -92 -157 -154 q-14 -10 -25 -10q-10 0 -10 8q0 6 12 17q240 201 240 338q0 68 -78 67q-98 0 -213 -90q-90 -74 -160 -176q-57 -84 -180 -361q53 -6 96 -6q29 0 59 6q16 6 37 11q10 0 11 -27q0 -14 -7 -16q-41 -16 -100 -17q-51 0 -119 8q-170 -324 -422 -466q68 -47 195 -101.5t213 -75.5 q53 -12 100 -12q96 0 164 37q86 47 86 135q0 10 8 10t9 -14v-4q-18 -182 -279 -182q-92 0 -195 24q-252 59 -409 146q-88 -41 -170 -41q-80 0 -154 35q-90 41 -90 112zM66 106q0 -57 61 -98q53 -37 115 -43q20 -2 37 -2q83 0 153 41q-49 33 -147 96q-104 63 -156 64 q-63 0 -63 -58z" />
<glyph unicode="&#xa4;" />
<glyph unicode="&#xa5;" horiz-adv-x="1478" d="M102 -76q0 12 29 13q125 0 283 174q82 90 209 280h-465q-6 0 -6 6q0 10 13 24.5t23 14.5h465l11 17q-2 88 -15 176h-289q-6 0 -6 4q0 10 13.5 25.5t23.5 15.5h252q-27 154 -90 278q-90 176 -209 176q-74 0 -125 -79q-47 -70 -47 -148q0 -35 26.5 -101.5t26.5 -56.5 q0 -14 -14 -14q-6 0 -10 6q-53 72 -54 166q0 92 52 168q57 86 145 86q123 0 223 -119q80 -92 125 -229q37 -111 45 -240q20 29 41 64q0 4 21 35q25 41 86 139q291 455 471 455q55 0 95 -41.5t40 -96.5q0 -39 -16 -39q-14 0 -15 15q0 4 2 12t2 12q0 43 -32.5 77t-75.5 34 q-152 0 -467 -559h213q4 0 4 -6q0 -10 -13.5 -24.5t-23.5 -14.5h-205q-35 -66 -108 -193h207q6 0 6 -6q0 -10 -13.5 -24.5t-23.5 -14.5h-205q-137 -205 -244 -311q-172 -170 -342 -170q-39 0 -39 14z" />
<glyph unicode="&#xa6;" horiz-adv-x="993" d="M344 -473l197 924l96 -9l-186 -915h-107zM586 670l184 864h107l-193 -875z" />
<glyph unicode="&#xa7;" horiz-adv-x="1351" d="M-12 281q0 162 95 305t245 205q100 41 211 40q160 0 256 -81q115 123 180 227v27q0 156 35 227q-18 76 -19 117q0 100 74 100q68 0 68 -94q0 -74 -60 -217q16 -31 143 -218.5t127 -377.5q0 -197 -102 -344q-115 -168 -301 -168q-37 0 -78 8q-197 -156 -420 -156 q-25 0 -51 4q43 -70 127 -98q18 -6 25 -6q8 0 23.5 6t23.5 6q12 0 12 -12q0 -23 -47 -23q-18 4 -33 11q-113 39 -157 118q-172 25 -271 121q-106 104 -106 273zM27 268q0 -137 93 -239.5t230 -110.5q-16 45 -16 100q0 113 59 261q-49 47 -49 114q0 25 14.5 63t32.5 38 q4 0 6 -5q0 2 -18.5 -33.5t-18.5 -66.5q0 -53 41 -94q93 207 357 424q-90 84 -228 84q-197 0 -350 -168t-153 -367zM354 27q0 -61 21 -109q239 0 407 162q-106 63 -129 166q-55 -18 -110 -19q-80 0 -129 35q-59 -131 -60 -235zM420 279q47 -37 112 -37q59 0 117 30 q-4 16 -4 37q0 72 45 121q2 2 6 2q8 0 9 -8l-21 -33q-18 -29 -18 -82q0 -14 2 -26q68 41 117 116.5t49 151.5q0 84 -60 151q-254 -217 -354 -423zM672 254q20 -102 123 -162q192 198 192 526q0 70 -4 160q-4 111 -8 162q-68 -102 -168 -203q70 -70 70 -180 q0 -100 -56.5 -183t-148.5 -120zM836 41zM887 57q125 2 225 156q88 135 96 270q2 33 2 68q0 160 -43 285q-4 10 -110 260q-14 -39 -35 -78l61 -254q33 -143 33 -258q0 -254 -229 -449zM1008 1133q0 -35 8 -82q19 34 31 67q-16 41 -27 80q-12 -27 -12 -65zM1012 1341 q0 -78 51 -186q49 125 49 205q0 59 -39 59q-61 0 -61 -78z" />
<glyph unicode="&#xa8;" horiz-adv-x="569" d="M78 950q0 68 65 68q70 0 70 -68t-66 -67q-70 0 -69 67zM342 950q0 68 66 68q69 0 69 -68t-65 -67q-70 0 -70 67z" />
<glyph unicode="&#xa9;" horiz-adv-x="1132" d="M-18 498q0 260 192.5 451.5t454.5 191.5q223 0 372.5 -147.5t149.5 -370.5q0 -260 -192.5 -451.5t-452.5 -191.5q-223 0 -373.5 147t-150.5 371zM16 504q0 -211 140.5 -351.5t351.5 -140.5q246 0 427 181.5t181 427.5q0 211 -140 350t-351 139q-246 0 -427.5 -180 t-181.5 -426zM180 410q0 195 164 352q-63 53 -63 117q0 113 135 112q92 0 133 -41q2 -4 2 -8t-2 -4q-70 37 -117 37q-129 0 -129 -105q0 -51 51 -98q158 145 394 146q80 0 139 -23q82 -30 82 -96q0 -72 -119 -111q-86 -29 -174 -29q-166 0 -283 68q-137 -150 -137 -330 q0 -98 45 -164q51 -78 145 -77q180 0 293 172q39 59 39 106q0 43 -27.5 69.5t-70.5 26.5q-92 0 -127 -86q-4 -10 -8 -10q-6 0 -6 6l2 9q23 94 145 94q51 0 85 -32t34 -83q0 -117 -123 -205q-113 -80 -236 -80q-125 0 -195.5 71t-70.5 196zM403 737q106 -61 244 -61 q92 0 174 24q121 37 121 107q0 96 -184 96q-197 0 -355 -166z" />
<glyph unicode="&#xaa;" horiz-adv-x="765" d="M104 950q0 98 86 201q68 80 160 80q49 0 78 -33q10 -10 6 -20q-4 -12 -16 -9q-10 37 -47 37q-82 0 -176 -157q-37 -61 -43 -105q-8 -51 24 -51q66 0 162 188q35 68 70 66q45 -4 43 -4q-25 -25 -55.5 -88.5t-39.5 -102.5q-12 -61 9 -61q49 -2 133 172q6 14 14 10 q6 -4 0 -18q-92 -184 -156 -191q-61 -4 -61 72q0 27 10 59q-82 -131 -141 -131t-60 86z" />
<glyph unicode="&#xab;" horiz-adv-x="923" d="M229 367q426 264 437 262l14 -6l2 -15q-25 -39 -158 -137q-43 -31 -174 -123l-2 -278l-10 -21l-14 -6q-8 2 -17 6q-20 53 -43 158zM526 367q426 264 437 262l12 -6l2 -15q-27 -43 -156 -137q-49 -37 -174 -123l-2 -278l-10 -21l-14 -6l-17 6q-18 33 -43 154z" />
<glyph unicode="&#xac;" horiz-adv-x="1654" d="M145 496q0 18 21.5 44.5t40.5 26.5h1163l-104 -493q-10 -45 -56 -45q-16 0 -29.5 14t-9.5 31l84 395h-1069q-41 0 -41 27z" />
<glyph unicode="&#xad;" horiz-adv-x="831" d="M301 457q0 39 35 39q43 0 450 -9q43 0 43 -32q1 -23 -34 -23q-162 0 -459 -35q-16 -2 -27 23q-8 18 -8 37z" />
<glyph unicode="&#xae;" horiz-adv-x="1132" d="M-18 498q0 260 192.5 451.5t454.5 191.5q223 0 372.5 -147.5t149.5 -370.5q0 -260 -192.5 -451.5t-452.5 -191.5q-223 0 -373.5 147t-150.5 371zM16 504q0 -211 140.5 -351.5t351.5 -140.5q246 0 427 181.5t181 427.5q0 211 -140 350t-351 139q-246 0 -427.5 -180 t-181.5 -426zM102 260q0 59 54 59q16 0 16 -8t-4 -8t-9 2t-7 2q-33 0 -33 -39q0 -49 76 -49q129 0 231 148q23 31 156 292q92 178 206 259q-74 27 -182 26q-285 0 -391 -178q-35 -57 -35 -117q0 -61 38 -102t99 -41q68 0 120 49t52 117q0 109 -98 108q-35 0 -62.5 -23.5 t-27.5 -58.5q0 -29 33 -28l4 4q2 2 4 2q4 0 4 -4q0 -10 -14 -10q-41 0 -41 36q0 39 33.5 67t72.5 28q51 0 84 -33t33 -84q0 -80 -59.5 -131t-141.5 -51q-74 0 -123 45t-49 116q0 176 217 260q111 43 258 43q109 0 193 -26q78 47 147 47q8 0 9 -2l-4 -4q-84 -6 -138 -47 q129 -47 129 -142q0 -88 -90 -145q-72 -45 -170 -55q12 -39 21 -109q4 -41 12 -121q16 -106 76 -106q53 0 112 71q53 63 68 121h2l6 -2l2 -2q-25 -72 -82 -135q-66 -76 -129 -76q-102 0 -112 174l-11 181h-24q-18 0 -31 4q-63 -158 -125 -232q-88 -106 -221 -139 q-35 -8 -70 -8q-84 0 -84 55zM608 596h45q-12 27 -28 39zM631 649q37 -14 55 -51q86 14 143 57q72 51 72 129q0 84 -96 127q-90 -80 -174 -262z" />
<glyph unicode="&#xaf;" horiz-adv-x="993" d="M365 825l45 101h475l-43 -101h-477z" />
<glyph unicode="&#xb0;" />
<glyph unicode="&#xb1;" horiz-adv-x="937" d="M270 104q0 39 35 39q51 0 209 -6q236 -8 324 -10q43 0 43 -33q0 -22 -35 -22q-313 0 -541 -27q-14 -2 -24.5 20.5t-10.5 38.5zM291 539q0 57 47 57q49 0 119 -2q139 -4 166 -4q20 88 71 297q10 43 43 43q23 0 15 -35q-18 -78 -62 -305q160 0 266 -2q35 0 35 -29 q0 -27 -41 -27q-61 0 -272 -12q-20 -106 -47 -280q-2 -14 -26.5 -24.5t-41.5 -10.5q-39 0 -31 35q14 61 72 276q-137 -8 -291 -18q-23 -2 -22 41z" />
<glyph unicode="&#xb2;" horiz-adv-x="731" d="M-4 637q4 10 56 66.5t57 56.5q16 4 24 0q358 317 359 452q0 49 -56 50q-61 0 -117 -60q-47 -49 -71 -117l-4 -6h-15l-2 8q29 84 90 144q70 68 150 67q106 0 106 -96q0 -78 -176 -244q-49 -45 -239 -204q127 -66 155 -66q41 0 84 39q14 14 47 45l9 -8v-4 q-115 -137 -183 -137q-23 0 -178 67l-82 -63z" />
<glyph unicode="&#xb3;" horiz-adv-x="731" d="M88 664v6l8 6l4 2q35 -16 78 -16q88 0 175 82.5t87 170.5q0 70 -78 70q-14 0 -75 -16l-8 4v8l4 6q252 100 252 221q0 39 -43 39q-63 0 -152 -96h-6l-8 6v6q100 121 200 121q82 0 82 -70q0 -121 -241 -206q147 0 147 -101q0 -98 -111.5 -184t-212.5 -86q-66 0 -102 27z " />
<glyph unicode="&#xb4;" horiz-adv-x="546" d="M113 860q0 6 4 12l252 187q45 33 84 33q31 0 49 -17.5t4 -46.5q-12 -23 -191.5 -105.5t-191.5 -76.5q-10 4 -10 14z" />
<glyph unicode="&#xb6;" horiz-adv-x="825" d="M332 0l272 743q-225 0 -225 172q0 53 24 119q74 199 273 277q74 29 209 28h352l-37 -102h-41l-452 -1237h-138l453 1237h-100l-453 -1237h-137z" />
<glyph unicode="&#xb7;" horiz-adv-x="2473" d="M0 -819zM0 2048zM76 193q0 47 45 47q49 0 49 -64q0 -78 -51 -78q-41 0 -41 37h18q0 -23 23 -22q27 0 33 51v2q-8 -16 -31 -16q-45 0 -45 43zM94 195q0 -31 29 -31q27 0 27 31t-29 30q-27 0 -27 -30zM131 1092h19v118l40 -118h19l41 118v-118h18v141h-28l-39 -119h-2 l-39 119h-29v-141zM137 715h33v-99h18v138h-14q-6 -23 -37 -25v-14zM182 102h23l39 58l39 -58h22l-49 72l47 70h-22l-37 -54l-35 54h-25l47 -70zM248 715h31v-99h18v138h-12q-6 -23 -37 -25v-14zM289 1118q0 29 30 33l29 4q10 0 10 12q0 16 -24 17q-20 0 -25 -21h-14 q0 35 41 35q39 0 39 -29v-59q0 -6 6 -6h6v-12q-8 -2 -10 -2q-18 0 -19 16q-16 -16 -36 -16q-33 0 -33 28zM307 1122q0 -18 19 -18q31 0 30 24v17q-2 -2 -25.5 -6t-23.5 -17zM324 102h18v119l39 -119h20l39 119v-119h19v142h-27l-41 -119l-41 119h-26v-142zM354 616h21v21 h-21v-21zM354 696h21v21h-21v-21zM387 1196l39 -106q-10 -25 -18 -25q-6 0 -11 2v-16h6q25 0 41.5 42t36.5 103h-18l-29 -84l-26 84h-21zM397 659q4 -47 47 -47q49 0 50 45q0 25 -23 33q18 6 18 29q0 35 -43 35q-45 0 -45 -45h17q2 31 26 30q27 0 27 -22q0 -23 -27 -23h-8 v-14h6q33 0 33 -25q0 -27 -31 -26q-27 0 -28 30h-19zM479 137q4 -39 45 -39q49 0 49 49q0 45 -45 46q-14 0 -26 -11l6 39h59v17h-71l-11 -74l15 -2q10 14 24 14q31 0 31 -31q0 -33 -29 -32q-27 0 -28 24h-19zM508 735h76q-49 -57 -56 -119h19q12 74 57 121v15h-96v-17z M559 1190h31v-98h18v139h-12q-6 -25 -37 -27v-14zM590 145q2 -47 45 -47q51 0 51 45q0 25 -24 33q18 6 18 29q0 35 -43 35q-45 0 -45 -45h18q2 31 27 30q25 0 25 -22q0 -23 -27 -23h-8v-14h8q33 0 33 -25q0 -27 -31 -26q-29 0 -29 30h-18zM655 1210h76q-49 -57 -55 -118h18 q12 74 58 120v15h-97v-17zM668 616l53 142h22l52 -142h-23l-12 41h-58l-14 -41h-20zM700 170q0 70 48 70q47 0 47 -70q0 -72 -47 -72t-48 72zM709 674h43l-21 63zM719 170q0 -55 29 -55q28 0 28 55t-28 55q-29 0 -29 -55zM774 1063q20 4 21 31v18h-21v-20h10q0 -18 -10 -19 v-10zM811 616h18v119l39 -119h19l41 119v-119h18v142h-26l-41 -119l-41 119h-27v-142zM821 201h33v-99h18v138h-14q-6 -23 -37 -25v-14zM872 1092h95v16h-76q2 16 24 27l15 8q37 20 37 47q0 41 -43 41q-47 0 -47 -49h16q2 33 29 32q27 0 26 -24q0 -18 -24 -33l-19 -10 q-33 -18 -33 -55zM932 201h31v-99h18v138h-12q-6 -23 -37 -25v-14zM983 1159q0 72 47 72q49 0 49 -72q0 -70 -49 -69q-47 0 -47 69zM1001 1159q0 -55 29 -55t29 55t-29 55t-29 -55zM1028 221h76q-49 -57 -55 -119h18q12 74 57 121v15h-96v-17zM1094 1159q0 72 47 72t47 -72 q0 -70 -47 -69q-47 0 -47 69zM1112 1159q0 -55 29 -55q28 0 28 55t-28 55q-29 0 -29 -55zM1135 137v17l63 86h14v-88h21v-15h-21v-35h-16v35h-61zM1151 152h45v61h-2zM1200 1126v17l64 88h14v-90h20v-15h-20v-34h-16v34h-62zM1217 1141h45v63h-2zM1247 221h76 q-49 -57 -57 -119h20q12 74 57 121v15h-96v-17zM1354 137v17l63 86h15v-88h20v-15h-20v-35h-17v35h-61zM1370 152h45v61h-2zM1466 170q0 70 47 70q48 0 48 -70q0 -72 -48 -72q-47 0 -47 72zM1485 170q0 -55 28 -55q29 0 29 55t-29 55t-28 -55zM1573 102h94v17h-74 q2 14 23 26l14 9q37 20 37 45q0 41 -43 41q-47 0 -47 -50h16q2 35 29 35t27 -24q0 -18 -25 -33l-18 -10q-31 -16 -33 -56zM1683 102h95v17h-76q2 14 24 26l15 9q37 20 37 45q0 41 -43 41q-49 0 -49 -50h18q2 35 27 35q29 0 28 -24q0 -18 -26 -33l-19 -10q-31 -16 -31 -56z M1794 145q2 -47 45 -47q51 0 51 45q0 25 -24 33q18 6 18 29q0 35 -43 35q-45 0 -45 -45h19q2 31 26 30q25 0 25 -22q0 -23 -27 -23h-8v-14h8q33 0 33 -25q0 -27 -31 -26q-29 0 -31 30h-16zM1907 147q0 -49 57 -49q55 0 55 43q0 29 -32 37l-41 10q-16 4 -17 19q0 25 33 24 q33 0 35 -28h18q-2 45 -55 45q-49 0 -49 -45q0 -27 31 -33l28 -6q29 -6 29 -25q0 -25 -37 -24q-39 0 -39 32h-16z" />
<glyph unicode="&#xb8;" horiz-adv-x="776" d="M147 -332q0 14 13 15q10 0 30 -23q49 -51 177 -51q147 0 196 74q29 43 29 84q0 55 -48 85.5t-106 30.5q-39 0 -94 -24.5t-53 -24.5q-39 0 -39 31q0 14 90 82q72 55 76 55q10 0 16 -16q-86 -63 -90 -72q41 6 80 6q86 0 156 -35q88 -43 88 -121q0 -84 -107 -155 q-51 -35 -155 -35q-55 0 -125 14q-86 18 -117 47q-16 14 -17 33z" />
<glyph unicode="&#xb9;" horiz-adv-x="749" d="M174 686q4 6 320 569q-96 -86 -193 -145h-4l-6 10l2 6q76 55 217 183q16 18 53 39l37 4l6 -2v-7l-6 -10l-352 -649q-8 -4 -62 -8l-10 2z" />
<glyph unicode="&#xba;" horiz-adv-x="559" d="M119 965q0 121 110 219q55 49 107 49q72 -2 72 -90q0 -117 -109 -217q14 -25 49 -25q63 0 144 174q4 8 10 4t2 -14q-80 -182 -166 -182q-35 0 -57 26q-45 -35 -91 -35q-72 2 -71 91zM176 940q0 -35 23 -43q31 -8 69 25q-16 29 -16 51q2 43 37 43q31 0 30 -29q0 -6 -2 -12 q63 92 64 174q0 41 -25 49q-37 10 -86 -47q-37 -41 -59 -88q-35 -74 -35 -123z" />
<glyph unicode="&#xbb;" horiz-adv-x="923" d="M55 55q0 27 164 148q72 53 168 121l2 278q6 12 10 19l17 8l18 -8q19 -44 74 -314l-420 -262l-14 -2q-6 0 -17 4zM354 47v19q29 45 156 135q57 41 174 123v92q-2 94 0 125q2 66 10 80l17 8l16 -8q10 -11 78 -314l-420 -262l-16 -2z" />
<glyph unicode="&#xbc;" horiz-adv-x="1273" d="M12 -195l1196 1559h66l-1196 -1559h-66zM289 686q2 6 317 569q-94 -86 -190 -145h-6l-4 10l2 6q76 55 217 183q16 18 53 39l37 4l6 -2v-7l-6 -10l-353 -649q-8 -4 -61 -8l-10 2zM647 225v11q14 27 92 106l109 111q96 109 168 202q25 33 57 43q10 4 72 15l8 -4v-9 q4 -37 -459 -446l271 6l82 158q10 18 71 22l8 -4v-6q-12 -25 -82 -166h29l6 -6l-6 -12l-6 -8h-37q-53 -106 -117 -228q-20 -20 -82 -20l-6 2v4q18 37 125 237z" />
<glyph unicode="&#xbd;" horiz-adv-x="1273" d="M41 -70q0 14 18 31q289 266 523 608q82 123 247 369q193 276 379 457q231 223 404 223q62 0 117 -31q31 -16 30 -43q0 -14 -14 -14q-10 0 -38 14.5t-50 14.5q-131 0 -438 -340q-182 -203 -570 -699q-348 -446 -559 -588q-20 -14 -35 -14q-14 0 -14 12zM289 686 q2 6 317 569q-94 -86 -190 -145h-6l-4 10l2 6q76 55 217 183q16 18 53 39l37 4l6 -2v-7l-6 -10l-353 -649q-8 -4 -61 -8l-10 2zM647 4q0 6 53.5 64.5t59.5 60.5q16 4 24 -2q358 317 359 453q0 51 -56 51q-59 0 -116 -62q-47 -51 -72 -116l-6 -4h-12l-4 6q31 86 90 143 q70 68 151 68q105 -1 105 -97q0 -80 -174 -243q-45 -43 -242 -205q129 -66 158 -66q41 0 84 39l45 45l8 -8v-4q-113 -137 -180 -137q-23 0 -181 69l-79 -65z" />
<glyph unicode="&#xbe;" horiz-adv-x="1273" d="M12 -195l1196 1559h66l-1196 -1559h-66zM88 664v6l8 6l4 2q35 -16 78 -16q88 0 175 82.5t87 170.5q0 70 -78 70q-14 0 -75 -16l-8 4v8l4 6q252 100 252 221q0 39 -43 39q-63 0 -152 -96h-6l-8 6v6q100 121 200 121q82 0 82 -70q0 -121 -241 -206q147 0 147 -101 q0 -98 -111.5 -184t-212.5 -86q-66 0 -102 27zM647 225v11q14 27 92 106l109 111q96 109 168 202q25 33 57 43q10 4 72 15l8 -4v-9q4 -37 -459 -446l271 6l82 158q10 18 71 22l8 -4v-6q-12 -25 -82 -166h29l6 -6l-6 -12l-6 -8h-37q-53 -106 -117 -228q-20 -20 -82 -20l-6 2 v4q18 37 125 237z" />
<glyph unicode="&#xbf;" />
<glyph unicode="&#xc0;" horiz-adv-x="1384" d="M37 225q0 238 156 520q80 147 180 261q-119 55 -172 106q-80 76 -80 178q0 66 29 88q10 16 24 17q20 0 21 -27q0 -12 -10.5 -38.5t-10.5 -41.5q0 -66 88 -143q68 -59 148 -96q481 535 999 534q141 0 238 -57q114 -70 114 -203q0 -188 -237 -303q-172 -84 -400 -105 q-111 -10 -217 -10q-221 0 -401 58q-362 -510 -363 -795q0 -203 176 -203q168 0 383 180q150 125 297 299q152 182 240 347q66 121 123 120q45 0 45 -63q0 -57 -51 -115q-94 -104 -168 -256.5t-101 -292.5q-12 -68 -12 -114q0 -139 86 -140q100 0 228 160q111 139 176 291 q14 33 32 33q6 0 7 -8q0 -8 -7 -25q-51 -135 -182 -311q-53 -72 -137 -129q-94 -63 -172 -64q-154 0 -154 229q0 131 74 287q-412 -489 -721 -489q-63 0 -121 24q-147 63 -147 297zM539 1004q156 -51 356 -52q86 0 229 13q211 18 357 96q196 105 196 287q0 96 -88 143 q-70 39 -174 39q-260 0 -495 -160q-176 -119 -381 -366zM1241 1876q0 43 39 43q27 0 182.5 -122t155.5 -136q0 -18 -20 -19q-12 0 -133 64q-68 33 -136 67q-88 51 -88 103z" />
<glyph unicode="&#xc1;" horiz-adv-x="1384" d="M37 225q0 238 156 520q80 147 180 261q-119 55 -172 106q-80 76 -80 178q0 66 29 88q10 16 24 17q20 0 21 -27q0 -12 -10.5 -38.5t-10.5 -41.5q0 -66 88 -143q68 -59 148 -96q481 535 999 534q141 0 238 -57q114 -70 114 -203q0 -188 -237 -303q-172 -84 -400 -105 q-111 -10 -217 -10q-221 0 -401 58q-362 -510 -363 -795q0 -203 176 -203q168 0 383 180q150 125 297 299q152 182 240 347q66 121 123 120q45 0 45 -63q0 -57 -51 -115q-94 -104 -168 -256.5t-101 -292.5q-12 -68 -12 -114q0 -139 86 -140q100 0 228 160q111 139 176 291 q14 33 32 33q6 0 7 -8q0 -8 -7 -25q-51 -135 -182 -311q-53 -72 -137 -129q-94 -63 -172 -64q-154 0 -154 229q0 131 74 287q-412 -489 -721 -489q-63 0 -121 24q-147 63 -147 297zM539 1004q156 -51 356 -52q86 0 229 13q211 18 357 96q196 105 196 287q0 96 -88 143 q-70 39 -174 39q-260 0 -495 -160q-176 -119 -381 -366zM1434 1683q0 6 4 12l252 187q45 33 84 33q31 0 49 -17.5t4 -46.5q-12 -23 -191.5 -105.5t-191.5 -76.5q-10 4 -10 14z" />
<glyph unicode="&#xc2;" horiz-adv-x="1384" d="M37 225q0 238 156 520q80 147 180 261q-119 55 -172 106q-80 76 -80 178q0 66 29 88q10 16 24 17q20 0 21 -27q0 -12 -10.5 -38.5t-10.5 -41.5q0 -66 88 -143q68 -59 148 -96q481 535 999 534q141 0 238 -57q114 -70 114 -203q0 -188 -237 -303q-172 -84 -400 -105 q-111 -10 -217 -10q-221 0 -401 58q-362 -510 -363 -795q0 -203 176 -203q168 0 383 180q150 125 297 299q152 182 240 347q66 121 123 120q45 0 45 -63q0 -57 -51 -115q-94 -104 -168 -256.5t-101 -292.5q-12 -68 -12 -114q0 -139 86 -140q100 0 228 160q111 139 176 291 q14 33 32 33q6 0 7 -8q0 -8 -7 -25q-51 -135 -182 -311q-53 -72 -137 -129q-94 -63 -172 -64q-154 0 -154 229q0 131 74 287q-412 -489 -721 -489q-63 0 -121 24q-147 63 -147 297zM539 1004q156 -51 356 -52q86 0 229 13q211 18 357 96q196 105 196 287q0 96 -88 143 q-70 39 -174 39q-260 0 -495 -160q-176 -119 -381 -366zM1122 1622q0 4 2 6l375 266q92 12 96 0l90 -266q4 -10 -6 -14q-31 -6 -45 14l-115 178l-331 -178q-12 -10 -41 -12q-25 0 -25 6z" />
<glyph unicode="&#xc3;" horiz-adv-x="1384" d="M37 225q0 238 156 520q80 147 180 261q-119 55 -172 106q-80 76 -80 178q0 66 29 88q10 16 24 17q20 0 21 -27q0 -12 -10.5 -38.5t-10.5 -41.5q0 -66 88 -143q68 -59 148 -96q481 535 999 534q141 0 238 -57q114 -70 114 -203q0 -188 -237 -303q-172 -84 -400 -105 q-111 -10 -217 -10q-221 0 -401 58q-362 -510 -363 -795q0 -203 176 -203q168 0 383 180q150 125 297 299q152 182 240 347q66 121 123 120q45 0 45 -63q0 -57 -51 -115q-94 -104 -168 -256.5t-101 -292.5q-12 -68 -12 -114q0 -139 86 -140q100 0 228 160q111 139 176 291 q14 33 32 33q6 0 7 -8q0 -8 -7 -25q-51 -135 -182 -311q-53 -72 -137 -129q-94 -63 -172 -64q-154 0 -154 229q0 131 74 287q-412 -489 -721 -489q-63 0 -121 24q-147 63 -147 297zM539 1004q156 -51 356 -52q86 0 229 13q211 18 357 96q196 105 196 287q0 96 -88 143 q-70 39 -174 39q-260 0 -495 -160q-176 -119 -381 -366zM1231 1695q92 164 200 154q43 -4 125 -37t123 -37q76 -6 113 72q2 8 24 4q23 -2 19 -8q-86 -174 -203 -164q-43 4 -123 40t-125 40q-66 4 -106 -68q-2 -8 -27 -6t-20 10z" />
<glyph unicode="&#xc4;" horiz-adv-x="1384" d="M37 225q0 238 156 520q80 147 180 261q-119 55 -172 106q-80 76 -80 178q0 66 29 88q10 16 24 17q20 0 21 -27q0 -12 -10.5 -38.5t-10.5 -41.5q0 -66 88 -143q68 -59 148 -96q481 535 999 534q141 0 238 -57q114 -70 114 -203q0 -188 -237 -303q-172 -84 -400 -105 q-111 -10 -217 -10q-221 0 -401 58q-362 -510 -363 -795q0 -203 176 -203q168 0 383 180q150 125 297 299q152 182 240 347q66 121 123 120q45 0 45 -63q0 -57 -51 -115q-94 -104 -168 -256.5t-101 -292.5q-12 -68 -12 -114q0 -139 86 -140q100 0 228 160q111 139 176 291 q14 33 32 33q6 0 7 -8q0 -8 -7 -25q-51 -135 -182 -311q-53 -72 -137 -129q-94 -63 -172 -64q-154 0 -154 229q0 131 74 287q-412 -489 -721 -489q-63 0 -121 24q-147 63 -147 297zM539 1004q156 -51 356 -52q86 0 229 13q211 18 357 96q196 105 196 287q0 96 -88 143 q-70 39 -174 39q-260 0 -495 -160q-176 -119 -381 -366zM1313 1712q0 68 65 68q70 0 70 -68t-66 -67q-70 0 -69 67zM1577 1712q0 68 66 68q69 0 69 -68t-65 -67q-70 0 -70 67z" />
<glyph unicode="&#xc5;" horiz-adv-x="1384" d="M37 225q0 238 156 520q80 147 180 261q-119 55 -172 106q-80 76 -80 178q0 66 29 88q10 16 24 17q20 0 21 -27q0 -12 -10.5 -38.5t-10.5 -41.5q0 -66 88 -143q68 -59 148 -96q481 535 999 534q141 0 238 -57q114 -70 114 -203q0 -188 -237 -303q-172 -84 -400 -105 q-111 -10 -217 -10q-221 0 -401 58q-362 -510 -363 -795q0 -203 176 -203q168 0 383 180q150 125 297 299q152 182 240 347q66 121 123 120q45 0 45 -63q0 -57 -51 -115q-94 -104 -168 -256.5t-101 -292.5q-12 -68 -12 -114q0 -139 86 -140q100 0 228 160q111 139 176 291 q14 33 32 33q6 0 7 -8q0 -8 -7 -25q-51 -135 -182 -311q-53 -72 -137 -129q-94 -63 -172 -64q-154 0 -154 229q0 131 74 287q-412 -489 -721 -489q-63 0 -121 24q-147 63 -147 297zM539 1004q156 -51 356 -52q86 0 229 13q211 18 357 96q196 105 196 287q0 96 -88 143 q-70 39 -174 39q-260 0 -495 -160q-176 -119 -381 -366zM1446 1661q0 53 39 92t92 39q55 0 93 -38t38 -93t-38 -93t-93 -38q-57 0 -94 37t-37 94zM1481 1659q0 -98 94 -98q37 0 65.5 30.5t28.5 67.5q0 39 -27.5 66.5t-66.5 27.5t-66.5 -27.5t-27.5 -66.5z" />
<glyph unicode="&#xc6;" horiz-adv-x="2811" d="M37 225q0 238 156 520q80 147 180 261q-119 55 -172 106q-80 76 -80 178q0 66 29 88q10 16 24 17q20 0 21 -27q0 -12 -10.5 -38.5t-10.5 -41.5q0 -66 88 -143q68 -59 148 -96q481 535 999 534q197 0 291 -102q283 166 602 166q152 0 276 -52q164 -68 164 -194 q0 -115 -127 -203q-98 -70 -229 -100q-35 -8 -55 -8q-31 0 -31 12q0 27 78 35q88 10 161.5 95t73.5 175q0 160 -231 182q-41 4 -76 4q-322 0 -561 -186q16 -39 16 -84q0 -156 -182 -272q27 -102 158 -156l225 -61q115 -31 104 -89q-6 -39 -114 -38q-31 0 -93.5 2t-93.5 2 q-451 0 -583 -314q-41 -94 -41 -180q0 -111 67 -207q135 -195 486 -194q213 0 450.5 82t396 215t158.5 235q0 49 -61.5 75t-61.5 30q0 10 25 10q24 0 55 -14q113 -53 113 -150q0 -147 -215 -291q-156 -104 -344 -164q-252 -78 -520 -77q-268 0 -459 100q-242 125 -242 371 q0 72 25 143q-406 -477 -709 -477q-63 0 -121 24q-147 63 -147 297zM143 168q0 -203 176 -203q168 0 383 180q150 125 297 299q152 182 240 347q66 121 123 120q45 0 45 -63q0 -59 -51 -115q-2 -6 -10 -16q172 82 352 90q-182 61 -256 176q-135 -51 -318 -68 q-117 -10 -217 -10q-221 0 -401 58q-362 -510 -363 -795zM539 1004q156 -51 356 -52q338 0 524 78q-8 27 -8 51q3 205 234 365q-66 84 -230 84q-260 0 -495 -160q-176 -119 -381 -366zM1573 1126q104 95 104 220q-94 -102 -102 -211z" />
<glyph unicode="&#xc7;" horiz-adv-x="1454" d="M121 434q0 180 68.5 376t181.5 335q-33 125 -33 264q0 111 24 205q8 29 29 28q20 0 12 -38q-10 -55 -10 -131q0 -117 27 -259q297 381 743 381q307 0 465 -155q113 -111 113 -271q0 -244 -215 -401q-195 -141 -447 -141q-72 0 -143 10q-367 53 -508 348 q-47 -61 -102 -233q-70 -215 -70 -398q0 -371 295 -458q109 -33 237 -33q246 0 449 119q121 72 203 180q53 72 133 233q10 20 22 21q10 0 11 -17q-1 -8 -9 -24q-86 -170 -133 -236q-76 -106 -196 -190q-225 -158 -486 -158q-158 0 -311 66q-350 150 -350 577zM350 -516 q0 14 13 15q10 0 30 -23q49 -51 177 -51q147 0 196 74q29 43 29 84q0 55 -48 85.5t-106 30.5q-39 0 -94 -24.5t-53 -24.5q-39 0 -39 31q0 14 90 82q72 55 76 55q10 0 16 -16q-86 -63 -90 -72q41 6 80 6q86 0 156 -35q88 -43 88 -121q0 -84 -107 -155q-51 -35 -155 -35 q-55 0 -125 14q-86 18 -117 47q-16 14 -17 33zM469 1051q125 -324 498 -365q37 -4 100 -4q227 0 395 119q186 133 187 352q0 133 -88 229q-126 136 -357 136q-219 0 -424 -140q-176 -123 -311 -327z" />
<glyph unicode="&#xc8;" horiz-adv-x="1847" d="M43 297q0 190 164 340q137 127 340 188q102 31 207 35q-96 33 -166 94q-88 78 -80 162q20 227 323 387q272 143 553 144q137 0 248 -45q147 -59 148 -172q0 -115 -152 -216q-137 -90 -260 -90q-29 0 -29 13q0 6 101 49q111 45 141 78q78 86 78 172q0 139 -203 157 q-23 2 -72 2q-217 0 -434 -108q-254 -127 -286 -320q-4 -25 -5 -47q0 -113 119 -170q14 -8 217 -61q113 -31 99 -86q-8 -37 -111 -37q-29 0 -87 2t-87 2q-356 0 -516 -207q-104 -135 -105 -282q0 -182 158 -275q129 -74 326 -74q203 0 419 76t380.5 205t164.5 225 q0 43 -51 60.5t-51 27.5q2 12 35 13q30 -1 55 -13q92 -45 92 -129q0 -141 -217 -278q-158 -102 -342 -158q-242 -74 -493 -74q-240 0 -406 84q-215 109 -215 326zM1259 1923q0 43 39 43q27 0 182.5 -122t155.5 -136q0 -18 -20 -19q-12 0 -133 64q-68 33 -136 67 q-88 51 -88 103z" />
<glyph unicode="&#xc9;" horiz-adv-x="1847" d="M43 297q0 190 164 340q137 127 340 188q102 31 207 35q-96 33 -166 94q-88 78 -80 162q20 227 323 387q272 143 553 144q137 0 248 -45q147 -59 148 -172q0 -115 -152 -216q-137 -90 -260 -90q-29 0 -29 13q0 6 101 49q111 45 141 78q78 86 78 172q0 139 -203 157 q-23 2 -72 2q-217 0 -434 -108q-254 -127 -286 -320q-4 -25 -5 -47q0 -113 119 -170q14 -8 217 -61q113 -31 99 -86q-8 -37 -111 -37q-29 0 -87 2t-87 2q-356 0 -516 -207q-104 -135 -105 -282q0 -182 158 -275q129 -74 326 -74q203 0 419 76t380.5 205t164.5 225 q0 43 -51 60.5t-51 27.5q2 12 35 13q30 -1 55 -13q92 -45 92 -129q0 -141 -217 -278q-158 -102 -342 -158q-242 -74 -493 -74q-240 0 -406 84q-215 109 -215 326zM1407 1751q0 6 4 12l252 187q45 33 84 33q31 0 49 -17.5t4 -46.5q-12 -23 -191.5 -105.5t-191.5 -76.5 q-10 4 -10 14z" />
<glyph unicode="&#xca;" horiz-adv-x="1847" d="M43 297q0 190 164 340q137 127 340 188q102 31 207 35q-96 33 -166 94q-88 78 -80 162q20 227 323 387q272 143 553 144q137 0 248 -45q147 -59 148 -172q0 -115 -152 -216q-137 -90 -260 -90q-29 0 -29 13q0 6 101 49q111 45 141 78q78 86 78 172q0 139 -203 157 q-23 2 -72 2q-217 0 -434 -108q-254 -127 -286 -320q-4 -25 -5 -47q0 -113 119 -170q14 -8 217 -61q113 -31 99 -86q-8 -37 -111 -37q-29 0 -87 2t-87 2q-356 0 -516 -207q-104 -135 -105 -282q0 -182 158 -275q129 -74 326 -74q203 0 419 76t380.5 205t164.5 225 q0 43 -51 60.5t-51 27.5q2 12 35 13q30 -1 55 -13q92 -45 92 -129q0 -141 -217 -278q-158 -102 -342 -158q-242 -74 -493 -74q-240 0 -406 84q-215 109 -215 326zM1151 1686q0 4 2 6l375 266q92 12 96 0l90 -266q4 -10 -6 -14q-31 -6 -45 14l-115 178l-331 -178 q-12 -10 -41 -12q-25 0 -25 6z" />
<glyph unicode="&#xcb;" horiz-adv-x="1847" d="M43 297q0 190 164 340q137 127 340 188q102 31 207 35q-96 33 -166 94q-88 78 -80 162q20 227 323 387q272 143 553 144q137 0 248 -45q147 -59 148 -172q0 -115 -152 -216q-137 -90 -260 -90q-29 0 -29 13q0 6 101 49q111 45 141 78q78 86 78 172q0 139 -203 157 q-23 2 -72 2q-217 0 -434 -108q-254 -127 -286 -320q-4 -25 -5 -47q0 -113 119 -170q14 -8 217 -61q113 -31 99 -86q-8 -37 -111 -37q-29 0 -87 2t-87 2q-356 0 -516 -207q-104 -135 -105 -282q0 -182 158 -275q129 -74 326 -74q203 0 419 76t380.5 205t164.5 225 q0 43 -51 60.5t-51 27.5q2 12 35 13q30 -1 55 -13q92 -45 92 -129q0 -141 -217 -278q-158 -102 -342 -158q-242 -74 -493 -74q-240 0 -406 84q-215 109 -215 326zM1274 1814q0 68 65 68q70 0 70 -68t-66 -67q-70 0 -69 67zM1538 1814q0 68 66 68q69 0 69 -68t-65 -67 q-70 0 -70 67z" />
<glyph unicode="&#xcc;" horiz-adv-x="1855" d="M-14 213q0 213 135 344q82 80 137 82q27 0 27 -8q0 -10 -23 -21q-78 -35 -141 -137q-55 -94 -68 -186q-4 -33 -4 -64q0 -233 221 -373q195 -123 447 -122q84 0 155 16q381 88 646 451q188 260 270 571q102 393 229 655q-395 -76 -596 -182q-330 -174 -329 -481 q0 -98 47 -168q53 -78 147 -78q41 0 80 14q160 59 160 240q0 88 -31 115q-4 6 4 18t19 12q12 0 20 -14q39 -63 39 -135q0 -123 -93 -214t-216 -91q-141 0 -233.5 103.5t-78.5 242.5q53 520 1088 672q63 141 137 163q20 6 45 7q68 -1 78 -60q14 -90 -141 -139q-14 0 -43 -8 t-41 -8q-76 -172 -131 -441q-76 -365 -90 -420q-61 -227 -187 -411q-281 -416 -751 -482q-102 -14 -195 -14q-295 0 -498 125q-242 150 -241 426zM1933 1940q0 43 39 43q27 0 182.5 -122t155.5 -136q0 -18 -20 -19q-12 0 -133 64q-68 33 -136 67q-88 51 -88 103zM2107 1481 q127 23 127 69q1 29 -26 29q-23 10 -101 -98z" />
<glyph unicode="&#xcd;" horiz-adv-x="1855" d="M-14 213q0 213 135 344q82 80 137 82q27 0 27 -8q0 -10 -23 -21q-78 -35 -141 -137q-55 -94 -68 -186q-4 -33 -4 -64q0 -233 221 -373q195 -123 447 -122q84 0 155 16q381 88 646 451q188 260 270 571q102 393 229 655q-395 -76 -596 -182q-330 -174 -329 -481 q0 -98 47 -168q53 -78 147 -78q41 0 80 14q160 59 160 240q0 88 -31 115q-4 6 4 18t19 12q12 0 20 -14q39 -63 39 -135q0 -123 -93 -214t-216 -91q-141 0 -233.5 103.5t-78.5 242.5q53 520 1088 672q63 141 137 163q20 6 45 7q68 -1 78 -60q14 -90 -141 -139q-14 0 -43 -8 t-41 -8q-76 -172 -131 -441q-76 -365 -90 -420q-61 -227 -187 -411q-281 -416 -751 -482q-102 -14 -195 -14q-295 0 -498 125q-242 150 -241 426zM1801 1657q0 6 4 12l252 187q45 33 84 33q31 0 49 -17.5t4 -46.5q-12 -23 -191.5 -105.5t-191.5 -76.5q-10 4 -10 14z M2107 1481q127 23 127 69q1 29 -26 29q-23 10 -101 -98z" />
<glyph unicode="&#xce;" horiz-adv-x="1855" d="M-14 213q0 213 135 344q82 80 137 82q27 0 27 -8q0 -10 -23 -21q-78 -35 -141 -137q-55 -94 -68 -186q-4 -33 -4 -64q0 -233 221 -373q195 -123 447 -122q84 0 155 16q381 88 646 451q188 260 270 571q102 393 229 655q-395 -76 -596 -182q-330 -174 -329 -481 q0 -98 47 -168q53 -78 147 -78q41 0 80 14q160 59 160 240q0 88 -31 115q-4 6 4 18t19 12q12 0 20 -14q39 -63 39 -135q0 -123 -93 -214t-216 -91q-141 0 -233.5 103.5t-78.5 242.5q53 520 1088 672q63 141 137 163q20 6 45 7q68 -1 78 -60q14 -90 -141 -139q-14 0 -43 -8 t-41 -8q-76 -172 -131 -441q-76 -365 -90 -420q-61 -227 -187 -411q-281 -416 -751 -482q-102 -14 -195 -14q-295 0 -498 125q-242 150 -241 426zM1876 1680q0 4 2 6l375 266q92 12 96 0l90 -266q4 -10 -6 -14q-31 -6 -45 14l-115 178l-331 -178q-12 -10 -41 -12 q-25 0 -25 6zM2107 1481q127 23 127 69q1 29 -26 29q-23 10 -101 -98z" />
<glyph unicode="&#xcf;" horiz-adv-x="1855" d="M-14 213q0 213 135 344q82 80 137 82q27 0 27 -8q0 -10 -23 -21q-78 -35 -141 -137q-55 -94 -68 -186q-4 -33 -4 -64q0 -233 221 -373q195 -123 447 -122q84 0 155 16q381 88 646 451q188 260 270 571q102 393 229 655q-395 -76 -596 -182q-330 -174 -329 -481 q0 -98 47 -168q53 -78 147 -78q41 0 80 14q160 59 160 240q0 88 -31 115q-4 6 4 18t19 12q12 0 20 -14q39 -63 39 -135q0 -123 -93 -214t-216 -91q-141 0 -233.5 103.5t-78.5 242.5q53 520 1088 672q63 141 137 163q20 6 45 7q68 -1 78 -60q14 -90 -141 -139q-14 0 -43 -8 t-41 -8q-76 -172 -131 -441q-76 -365 -90 -420q-61 -227 -187 -411q-281 -416 -751 -482q-102 -14 -195 -14q-295 0 -498 125q-242 150 -241 426zM1991 1824q0 68 65 68q70 0 70 -68t-66 -67q-70 0 -69 67zM2107 1481q127 23 127 69q1 29 -26 29q-23 10 -101 -98zM2255 1824 q0 68 66 68q69 0 69 -68t-65 -67q-70 0 -70 67z" />
<glyph unicode="&#xd0;" />
<glyph unicode="&#xd1;" horiz-adv-x="2127" d="M-4 719q0 289 221 536q145 164 330 263q203 106 403 106q195 0 299.5 -107.5t104.5 -304.5q0 -141 -113 -477q-39 -117 -39 -123v-2q6 18 51 103q129 242 285 446q309 403 590 404q227 0 227 -236q0 -143 -119 -434q-199 -485 -225 -563q-63 -186 -63 -330 q0 -246 153 -246q31 0 83 20.5t71 20.5q31 0 31 -24q0 -37 -48 -56q-37 -16 -77 -14q-334 16 -334 346q0 88 20 184q12 61 189 557q152 430 157 558q4 121 -106 120q-66 0 -154 -45q-410 -211 -712 -960q-31 -76 -193 -535q-20 -59 -104 -59q-72 0 -64 47q117 211 244 643 q131 449 131 670q0 338 -272 338q-205 0 -426 -162q-205 -150 -309.5 -345.5t-104.5 -387.5q0 -158 67 -260q80 -121 230 -121q188 0 323 147q119 131 119 277q0 164 -155 164q-16 0 -35 -5q-27 -2 -27 13q0 16 19 20q51 12 90 13q182 0 182 -193q0 -166 -135 -311 q-154 -164 -381 -164q-186 0 -309 143q-115 135 -115 326zM1772 1722q92 164 200 154q43 -4 125 -37t123 -37q76 -6 113 72q2 8 24 4q23 -2 19 -8q-86 -174 -203 -164q-43 4 -123 40t-125 40q-66 4 -106 -68q-2 -8 -27 -6t-20 10z" />
<glyph unicode="&#xd2;" horiz-adv-x="1605" d="M100 999q0 270 250 439q217 147 502 147q326 0 518 -184q199 -190 184 -516q205 139 267 260q10 16 26 16q14 0 15 -12q-1 -13 -11 -29q-119 -186 -305 -307q-8 -100 -47 -219q-86 -268 -328 -485q-258 -233 -528 -234q-254 0 -367 197q-74 127 -73 301q0 154 59 305 q-162 106 -162 321zM211 997q0 -158 88 -235q117 244 319 426q176 156 324 155q74 0 141 -36q14 -8 15 -19q0 -20 -31 -10q-27 8 -59 8q-164 0 -365 -229q-160 -182 -240 -365q121 -59 312 -59q369 0 715 186q4 53 4 105q0 279 -148 446q-154 178 -426 178q-252 0 -442 -147 q-207 -158 -207 -404zM311 305q0 -256 168 -338q84 -41 180 -41q233 0 451 230q182 195 270 446q27 76 37 146q-344 -182 -717 -183q-190 0 -327 56q-61 -164 -62 -316zM915 1903q0 43 39 43q27 0 182.5 -122t155.5 -136q0 -18 -20 -19q-12 0 -133 64q-68 33 -136 67 q-88 51 -88 103z" />
<glyph unicode="&#xd3;" horiz-adv-x="1605" d="M100 999q0 270 250 439q217 147 502 147q326 0 518 -184q199 -190 184 -516q205 139 267 260q10 16 26 16q14 0 15 -12q-1 -13 -11 -29q-119 -186 -305 -307q-8 -100 -47 -219q-86 -268 -328 -485q-258 -233 -528 -234q-254 0 -367 197q-74 127 -73 301q0 154 59 305 q-162 106 -162 321zM211 997q0 -158 88 -235q117 244 319 426q176 156 324 155q74 0 141 -36q14 -8 15 -19q0 -20 -31 -10q-27 8 -59 8q-164 0 -365 -229q-160 -182 -240 -365q121 -59 312 -59q369 0 715 186q4 53 4 105q0 279 -148 446q-154 178 -426 178q-252 0 -442 -147 q-207 -158 -207 -404zM311 305q0 -256 168 -338q84 -41 180 -41q233 0 451 230q182 195 270 446q27 76 37 146q-344 -182 -717 -183q-190 0 -327 56q-61 -164 -62 -316zM1110 1673q0 6 4 12l252 187q45 33 84 33q31 0 49 -17.5t4 -46.5q-12 -23 -191.5 -105.5t-191.5 -76.5 q-10 4 -10 14z" />
<glyph unicode="&#xd4;" horiz-adv-x="1605" d="M100 999q0 270 250 439q217 147 502 147q326 0 518 -184q199 -190 184 -516q205 139 267 260q10 16 26 16q14 0 15 -12q-1 -13 -11 -29q-119 -186 -305 -307q-8 -100 -47 -219q-86 -268 -328 -485q-258 -233 -528 -234q-254 0 -367 197q-74 127 -73 301q0 154 59 305 q-162 106 -162 321zM211 997q0 -158 88 -235q117 244 319 426q176 156 324 155q74 0 141 -36q14 -8 15 -19q0 -20 -31 -10q-27 8 -59 8q-164 0 -365 -229q-160 -182 -240 -365q121 -59 312 -59q369 0 715 186q4 53 4 105q0 279 -148 446q-154 178 -426 178q-252 0 -442 -147 q-207 -158 -207 -404zM311 305q0 -256 168 -338q84 -41 180 -41q233 0 451 230q182 195 270 446q27 76 37 146q-344 -182 -717 -183q-190 0 -327 56q-61 -164 -62 -316zM840 1645q0 4 2 6l375 266q92 12 96 0l90 -266q4 -10 -6 -14q-31 -6 -45 14l-115 178l-331 -178 q-12 -10 -41 -12q-25 0 -25 6z" />
<glyph unicode="&#xd5;" horiz-adv-x="1605" d="M100 999q0 270 250 439q217 147 502 147q326 0 518 -184q199 -190 184 -516q205 139 267 260q10 16 26 16q14 0 15 -12q-1 -13 -11 -29q-119 -186 -305 -307q-8 -100 -47 -219q-86 -268 -328 -485q-258 -233 -528 -234q-254 0 -367 197q-74 127 -73 301q0 154 59 305 q-162 106 -162 321zM211 997q0 -158 88 -235q117 244 319 426q176 156 324 155q74 0 141 -36q14 -8 15 -19q0 -20 -31 -10q-27 8 -59 8q-164 0 -365 -229q-160 -182 -240 -365q121 -59 312 -59q369 0 715 186q4 53 4 105q0 279 -148 446q-154 178 -426 178q-252 0 -442 -147 q-207 -158 -207 -404zM311 305q0 -256 168 -338q84 -41 180 -41q233 0 451 230q182 195 270 446q27 76 37 146q-344 -182 -717 -183q-190 0 -327 56q-61 -164 -62 -316zM871 1689q92 164 200 154q43 -4 125 -37t123 -37q76 -6 113 72q2 8 24 4q23 -2 19 -8 q-86 -174 -203 -164q-43 4 -123 40t-125 40q-66 4 -106 -68q-2 -8 -27 -6t-20 10z" />
<glyph unicode="&#xd6;" horiz-adv-x="1605" d="M100 999q0 270 250 439q217 147 502 147q326 0 518 -184q199 -190 184 -516q205 139 267 260q10 16 26 16q14 0 15 -12q-1 -13 -11 -29q-119 -186 -305 -307q-8 -100 -47 -219q-86 -268 -328 -485q-258 -233 -528 -234q-254 0 -367 197q-74 127 -73 301q0 154 59 305 q-162 106 -162 321zM211 997q0 -158 88 -235q117 244 319 426q176 156 324 155q74 0 141 -36q14 -8 15 -19q0 -20 -31 -10q-27 8 -59 8q-164 0 -365 -229q-160 -182 -240 -365q121 -59 312 -59q369 0 715 186q4 53 4 105q0 279 -148 446q-154 178 -426 178q-252 0 -442 -147 q-207 -158 -207 -404zM311 305q0 -256 168 -338q84 -41 180 -41q233 0 451 230q182 195 270 446q27 76 37 146q-344 -182 -717 -183q-190 0 -327 56q-61 -164 -62 -316zM1016 1738q0 68 65 68q70 0 70 -68t-66 -67q-70 0 -69 67zM1280 1738q0 68 66 68q69 0 69 -68t-65 -67 q-70 0 -70 67z" />
<glyph unicode="&#xd7;" horiz-adv-x="489" d="M76 80l151 164l-88 172q10 31 39 41l86 -174l152 163q6 0 14 -17.5t8 -25.5l-151 -163l88 -172q-10 -31 -39 -41l-86 174l-152 -164q-6 2 -14 18.5t-8 24.5z" />
<glyph unicode="&#xd8;" horiz-adv-x="1605" d="M100 993q0 276 246 445q217 147 506 147q236 0 412 -106q170 201 325 200q113 0 113 -53q0 -14 -21 -14q-10 0 -31.5 7t-33.5 7q-98 0 -254 -219q205 -190 192 -522q205 139 267 260q10 16 26 16q14 0 15 -12q-1 -13 -11 -29q-119 -186 -305 -307q-8 -100 -47 -219 q-86 -268 -328 -485q-258 -233 -528 -234q-61 0 -121 12q-88 -133 -164 -209q-20 -20 -34 -22q-14 0 -15 14q0 14 13 31q63 88 135 207q-129 49 -197 190q-57 123 -57 275q0 154 59 305q-162 109 -162 315zM211 997q0 -158 88 -235q117 244 319 426q176 156 324 155 q74 0 141 -36q14 -8 15 -19q0 -20 -31 -10q-27 8 -59 8q-164 0 -365 -229q-160 -182 -240 -365q121 -59 312 -59q45 0 94 2q221 541 416 795q-150 119 -365 118q-252 0 -442 -147q-207 -158 -207 -404zM309 303q0 -256 170 -336l13 -4q137 233 229 453q12 30 61 151 q-41 -2 -82 -2q-190 0 -327 56q-63 -166 -64 -318zM555 -61q51 -12 104 -13q233 0 451 230q182 195 270 446q27 76 37 146q-242 -129 -520 -168l-100 -201q-143 -287 -242 -440zM934 651q267 45 496 168q4 53 4 105q0 254 -119 413q-145 -221 -381 -686z" />
<glyph unicode="&#xd9;" horiz-adv-x="1929" d="M-8 752q0 272 196 518q166 205 439 354q238 131 458 131q117 0 209 -41q197 -86 197 -334q0 -86 -23 -184q-27 -117 -208 -526q-158 -354 -158 -523q0 -176 115 -176q150 0 344 283q84 123 192 338l152 301q59 108 114 108q39 -18 39 -61q0 -16 -106 -266 q-117 -274 -129 -322q-49 -188 -49 -315q0 -154 77 -150q55 4 56 -16q0 -18 -26 -26.5t-44 -4.5q-150 27 -149 287q0 113 28 254q-55 -96 -125 -184q-215 -276 -413 -277q-96 0 -150 76q-45 66 -45 166q0 166 156 524q186 430 209 518q35 137 34 242q0 141 -75 201 q-68 53 -213 53q-225 0 -471 -144q-233 -135 -379 -333q-168 -227 -168 -471q0 -166 84 -279q92 -125 252 -125q236 0 383 227q96 147 96 273q0 147 -135 147q-20 0 -60.5 -8t-60.5 -8q-23 0 -2 18q16 16 35 23q72 29 125 29q158 0 157 -189q0 -162 -114 -315 q-109 -145 -265 -211q-100 -43 -192 -43q-180 0 -289 143q-98 131 -98 318zM1587 1645q0 43 39 43q27 0 182.5 -122t155.5 -136q0 -18 -20 -19q-12 0 -133 64q-68 33 -136 67q-88 51 -88 103z" />
<glyph unicode="&#xda;" horiz-adv-x="1929" d="M-8 752q0 272 196 518q166 205 439 354q238 131 458 131q117 0 209 -41q197 -86 197 -334q0 -86 -23 -184q-27 -117 -208 -526q-158 -354 -158 -523q0 -176 115 -176q150 0 344 283q84 123 192 338l152 301q59 108 114 108q39 -18 39 -61q0 -16 -106 -266 q-117 -274 -129 -322q-49 -188 -49 -315q0 -154 77 -150q55 4 56 -16q0 -18 -26 -26.5t-44 -4.5q-150 27 -149 287q0 113 28 254q-55 -96 -125 -184q-215 -276 -413 -277q-96 0 -150 76q-45 66 -45 166q0 166 156 524q186 430 209 518q35 137 34 242q0 141 -75 201 q-68 53 -213 53q-225 0 -471 -144q-233 -135 -379 -333q-168 -227 -168 -471q0 -166 84 -279q92 -125 252 -125q236 0 383 227q96 147 96 273q0 147 -135 147q-20 0 -60.5 -8t-60.5 -8q-23 0 -2 18q16 16 35 23q72 29 125 29q158 0 157 -189q0 -162 -114 -315 q-109 -145 -265 -211q-100 -43 -192 -43q-180 0 -289 143q-98 131 -98 318zM1672 1386q0 6 4 12l252 187q45 33 84 33q31 0 49 -17.5t4 -46.5q-12 -23 -191.5 -105.5t-191.5 -76.5q-10 4 -10 14z" />
<glyph unicode="&#xdb;" horiz-adv-x="1929" d="M-8 752q0 272 196 518q166 205 439 354q238 131 458 131q117 0 209 -41q197 -86 197 -334q0 -86 -23 -184q-27 -117 -208 -526q-158 -354 -158 -523q0 -176 115 -176q150 0 344 283q84 123 192 338l152 301q59 108 114 108q39 -18 39 -61q0 -16 -106 -266 q-117 -274 -129 -322q-49 -188 -49 -315q0 -154 77 -150q55 4 56 -16q0 -18 -26 -26.5t-44 -4.5q-150 27 -149 287q0 113 28 254q-55 -96 -125 -184q-215 -276 -413 -277q-96 0 -150 76q-45 66 -45 166q0 166 156 524q186 430 209 518q35 137 34 242q0 141 -75 201 q-68 53 -213 53q-225 0 -471 -144q-233 -135 -379 -333q-168 -227 -168 -471q0 -166 84 -279q92 -125 252 -125q236 0 383 227q96 147 96 273q0 147 -135 147q-20 0 -60.5 -8t-60.5 -8q-23 0 -2 18q16 16 35 23q72 29 125 29q158 0 157 -189q0 -162 -114 -315 q-109 -145 -265 -211q-100 -43 -192 -43q-180 0 -289 143q-98 131 -98 318zM1556 1422q0 4 2 6l375 266q92 12 96 0l90 -266q4 -10 -6 -14q-31 -6 -45 14l-115 178l-331 -178q-12 -10 -41 -12q-25 0 -25 6z" />
<glyph unicode="&#xdc;" horiz-adv-x="1929" d="M-8 752q0 272 196 518q166 205 439 354q238 131 458 131q117 0 209 -41q197 -86 197 -334q0 -86 -23 -184q-27 -117 -208 -526q-158 -354 -158 -523q0 -176 115 -176q150 0 344 283q84 123 192 338l152 301q59 108 114 108q39 -18 39 -61q0 -16 -106 -266 q-117 -274 -129 -322q-49 -188 -49 -315q0 -154 77 -150q55 4 56 -16q0 -18 -26 -26.5t-44 -4.5q-150 27 -149 287q0 113 28 254q-55 -96 -125 -184q-215 -276 -413 -277q-96 0 -150 76q-45 66 -45 166q0 166 156 524q186 430 209 518q35 137 34 242q0 141 -75 201 q-68 53 -213 53q-225 0 -471 -144q-233 -135 -379 -333q-168 -227 -168 -471q0 -166 84 -279q92 -125 252 -125q236 0 383 227q96 147 96 273q0 147 -135 147q-20 0 -60.5 -8t-60.5 -8q-23 0 -2 18q16 16 35 23q72 29 125 29q158 0 157 -189q0 -162 -114 -315 q-109 -145 -265 -211q-100 -43 -192 -43q-180 0 -289 143q-98 131 -98 318zM1639 1487q0 68 65 68q70 0 70 -68t-66 -67q-70 0 -69 67zM1903 1487q0 68 66 68q69 0 69 -68t-65 -67q-70 0 -70 67z" />
<glyph unicode="&#xdd;" />
<glyph unicode="&#xde;" />
<glyph unicode="&#xdf;" horiz-adv-x="1560" d="M-295 -532q-4 61 36 108t101 47q43 0 69 -28.5t21 -71.5q-4 -43 -35.5 -72t-74.5 -29q-37 0 -62 25q25 -59 121 -59q18 0 43 6q205 53 357 278q76 115 206 420l496 1149q37 84 86 135q63 63 158 56q141 -12 231 -72q111 -74 109 -203q-2 -109 -119 -223 q-90 -90 -211 -156q-41 -23 -41 -53q0 -18 16 -25q227 -82 228 -299q0 -215 -201 -362q-176 -131 -403 -148q-29 -2 -60 -2q-86 0 -86 21q0 23 72 24q207 8 373 134q186 139 186 338q0 141 -125 215q-78 47 -78 94q0 53 94 116q215 143 220 314q4 178 -164 235q-12 4 -23 4 q-53 0 -104 -67q-39 -53 -62 -117q-442 -1284 -669 -1550q-256 -299 -486 -316q-207 -14 -219 134z" />
<glyph unicode="&#xe0;" horiz-adv-x="716" d="M49 170q0 195 172 401q55 68 143.5 114t172.5 46q100 0 159 -65q14 -16 15 -33q0 -35 -37 -27q-20 74 -94 74q-86 0 -203 -121q-86 -88 -150 -194q-86 -143 -86 -240q0 -70 52 -70q125 0 321 377q41 78 61 100q33 35 78 31q10 0 41 -6t45 -2q-47 -47 -112 -182 q-61 -127 -78 -201q-8 -39 -8 -70q0 -53 28 -53q94 -4 265 344q10 20 24 21q10 0 10 -13q0 -12 -6 -24q-182 -371 -309 -381q-59 -4 -91 39t-32 104q0 53 21 121q-160 -262 -287 -262q-59 0 -90 59q-25 47 -25 113zM284 1049q0 43 39 43q27 0 182.5 -122t155.5 -136 q0 -18 -20 -19q-12 0 -133 64q-68 33 -136 67q-88 51 -88 103z" />
<glyph unicode="&#xe1;" horiz-adv-x="716" d="M49 170q0 195 172 401q55 68 143.5 114t172.5 46q100 0 159 -65q14 -16 15 -33q0 -35 -37 -27q-20 74 -94 74q-86 0 -203 -121q-86 -88 -150 -194q-86 -143 -86 -240q0 -70 52 -70q125 0 321 377q41 78 61 100q33 35 78 31q10 0 41 -6t45 -2q-47 -47 -112 -182 q-61 -127 -78 -201q-8 -39 -8 -70q0 -53 28 -53q94 -4 265 344q10 20 24 21q10 0 10 -13q0 -12 -6 -24q-182 -371 -309 -381q-59 -4 -91 39t-32 104q0 53 21 121q-160 -262 -287 -262q-59 0 -90 59q-25 47 -25 113zM451 823q0 6 4 12l252 187q45 33 84 33q31 0 49 -17.5 t4 -46.5q-12 -23 -191.5 -105.5t-191.5 -76.5q-10 4 -10 14z" />
<glyph unicode="&#xe2;" horiz-adv-x="716" d="M49 170q0 195 172 401q55 68 143.5 114t172.5 46q100 0 159 -65q14 -16 15 -33q0 -35 -37 -27q-20 74 -94 74q-86 0 -203 -121q-86 -88 -150 -194q-86 -143 -86 -240q0 -70 52 -70q125 0 321 377q41 78 61 100q33 35 78 31q10 0 41 -6t45 -2q-47 -47 -112 -182 q-61 -127 -78 -201q-8 -39 -8 -70q0 -53 28 -53q94 -4 265 344q10 20 24 21q10 0 10 -13q0 -12 -6 -24q-182 -371 -309 -381q-59 -4 -91 39t-32 104q0 53 21 121q-160 -262 -287 -262q-59 0 -90 59q-25 47 -25 113zM307 801q0 4 2 6l375 266q92 12 96 0l90 -266 q4 -10 -6 -14q-31 -6 -45 14l-115 178l-331 -178q-12 -10 -41 -12q-25 0 -25 6z" />
<glyph unicode="&#xe3;" horiz-adv-x="716" d="M49 170q0 195 172 401q55 68 143.5 114t172.5 46q100 0 159 -65q14 -16 15 -33q0 -35 -37 -27q-20 74 -94 74q-86 0 -203 -121q-86 -88 -150 -194q-86 -143 -86 -240q0 -70 52 -70q125 0 321 377q41 78 61 100q33 35 78 31q10 0 41 -6t45 -2q-47 -47 -112 -182 q-61 -127 -78 -201q-8 -39 -8 -70q0 -53 28 -53q94 -4 265 344q10 20 24 21q10 0 10 -13q0 -12 -6 -24q-182 -371 -309 -381q-59 -4 -91 39t-32 104q0 53 21 121q-160 -262 -287 -262q-59 0 -90 59q-25 47 -25 113zM314 919q92 164 200 154q43 -4 125 -37t123 -37 q76 -6 113 72q2 8 24 4q23 -2 19 -8q-86 -174 -203 -164q-43 4 -123 40t-125 40q-66 4 -106 -68q-2 -8 -27 -6t-20 10z" />
<glyph unicode="&#xe4;" horiz-adv-x="716" d="M49 170q0 195 172 401q55 68 143.5 114t172.5 46q100 0 159 -65q14 -16 15 -33q0 -35 -37 -27q-20 74 -94 74q-86 0 -203 -121q-86 -88 -150 -194q-86 -143 -86 -240q0 -70 52 -70q125 0 321 377q41 78 61 100q33 35 78 31q10 0 41 -6t45 -2q-47 -47 -112 -182 q-61 -127 -78 -201q-8 -39 -8 -70q0 -53 28 -53q94 -4 265 344q10 20 24 21q10 0 10 -13q0 -12 -6 -24q-182 -371 -309 -381q-59 -4 -91 39t-32 104q0 53 21 121q-160 -262 -287 -262q-59 0 -90 59q-25 47 -25 113zM438 942q0 68 65 68q70 0 70 -68t-66 -67q-70 0 -69 67z M702 942q0 68 66 68q69 0 69 -68t-65 -67q-70 0 -70 67z" />
<glyph unicode="&#xe5;" horiz-adv-x="716" d="M49 170q0 195 172 401q55 68 143.5 114t172.5 46q100 0 159 -65q14 -16 15 -33q0 -35 -37 -27q-20 74 -94 74q-86 0 -203 -121q-86 -88 -150 -194q-86 -143 -86 -240q0 -70 52 -70q125 0 321 377q41 78 61 100q33 35 78 31q10 0 41 -6t45 -2q-47 -47 -112 -182 q-61 -127 -78 -201q-8 -39 -8 -70q0 -53 28 -53q94 -4 265 344q10 20 24 21q10 0 10 -13q0 -12 -6 -24q-182 -371 -309 -381q-59 -4 -91 39t-32 104q0 53 21 121q-160 -262 -287 -262q-59 0 -90 59q-25 47 -25 113zM504 817q0 53 38 92t91 39q55 0 93 -38t38 -93t-38 -93 t-93 -38q-53 0 -91 38.5t-38 92.5zM537 817q0 -41 26.5 -69t67.5 -28t68.5 28t27.5 69t-27.5 67.5t-68.5 26.5q-39 0 -66.5 -27.5t-27.5 -66.5z" />
<glyph unicode="&#xe6;" horiz-adv-x="892" d="M49 170q0 195 172 401q55 68 143.5 114t172.5 46q117 0 165 -74q96 72 181 72q115 0 114 -98q0 -113 -147 -225q-41 -31 -121 -61t-129 -30l-8 -16q-25 -49 -25 -127q0 -137 101 -137q186 0 338 350q12 29 32 29q10 0 11 -13q-1 -4 -7 -18q-86 -186 -139 -256 q-104 -135 -252 -135q-92 0 -148.5 63.5t-56.5 157.5q0 23 5 47q-160 -262 -287 -262q-59 0 -90 59q-25 47 -25 113zM141 125q0 -70 52 -70q125 0 321 377q58 109 152 195q-27 53 -86 53q-86 0 -203 -121q-86 -88 -150 -194q-86 -143 -86 -240zM616 350q111 6 215 90 q111 93 111 199q0 45 -33 45q-57 0 -174 -141q-63 -76 -119 -193z" />
<glyph unicode="&#xe7;" horiz-adv-x="532" d="M34 -332q0 14 13 15q10 0 30 -23q49 -51 177 -51q147 0 196 74q29 43 29 84q0 55 -48 85.5t-106 30.5q-39 0 -94 -24.5t-53 -24.5q-39 0 -39 31q0 14 90 82q72 55 76 55q10 0 16 -16q-86 -63 -90 -72q41 6 80 6q86 0 156 -35q88 -43 88 -121q0 -84 -107 -155 q-51 -35 -155 -35q-55 0 -125 14q-86 18 -117 47q-16 14 -17 33zM76 197q0 172 119 340q129 184 294 184q158 0 142 -141q-4 -39 -37 -80t-70 -41q-18 0 -30 12q70 72 69 152q0 53 -47 53q-106 0 -221 -205q-106 -190 -102 -307q6 -135 112 -135q158 0 338 360q10 23 25 23 q8 0 8 -15q0 -8 -6 -22q-78 -180 -152 -266q-100 -117 -239 -117q-203 0 -203 205z" />
<glyph unicode="&#xe8;" horiz-adv-x="503" d="M63 188q-2 190 158 383q131 158 271 158q115 0 114 -98q0 -113 -147 -225q-41 -31 -122 -61t-130 -30q-27 -68 -27 -147q0 -133 96 -133q186 0 338 350q12 29 33 29q10 0 10 -13q0 -4 -6 -18q-86 -186 -139 -256q-104 -135 -252 -135q-86 0 -140 55t-57 141zM211 1031 q0 43 39 43q27 0 182.5 -122t155.5 -136q0 -18 -20 -19q-12 0 -133 64q-68 33 -136 67q-88 51 -88 103zM221 350q106 0 218 92.5t112 196.5q0 45 -33 45q-57 0 -174 -141q-61 -76 -123 -193z" />
<glyph unicode="&#xe9;" horiz-adv-x="503" d="M63 188q-2 190 158 383q131 158 271 158q115 0 114 -98q0 -113 -147 -225q-41 -31 -122 -61t-130 -30q-27 -68 -27 -147q0 -133 96 -133q186 0 338 350q12 29 33 29q10 0 10 -13q0 -4 -6 -18q-86 -186 -139 -256q-104 -135 -252 -135q-86 0 -140 55t-57 141zM221 350 q106 0 218 92.5t112 196.5q0 45 -33 45q-57 0 -174 -141q-61 -76 -123 -193zM414 823q0 6 4 12l252 187q45 33 84 33q31 0 49 -17.5t4 -46.5q-12 -23 -191.5 -105.5t-191.5 -76.5q-10 4 -10 14z" />
<glyph unicode="&#xea;" horiz-adv-x="503" d="M63 188q-2 190 158 383q131 158 271 158q115 0 114 -98q0 -113 -147 -225q-41 -31 -122 -61t-130 -30q-27 -68 -27 -147q0 -133 96 -133q186 0 338 350q12 29 33 29q10 0 10 -13q0 -4 -6 -18q-86 -186 -139 -256q-104 -135 -252 -135q-86 0 -140 55t-57 141zM221 350 q106 0 218 92.5t112 196.5q0 45 -33 45q-57 0 -174 -141q-61 -76 -123 -193zM256 801q0 4 2 6l375 266q92 12 96 0l90 -266q4 -10 -6 -14q-31 -6 -45 14l-115 178l-331 -178q-12 -10 -41 -12q-25 0 -25 6z" />
<glyph unicode="&#xeb;" horiz-adv-x="503" d="M63 188q-2 190 158 383q131 158 271 158q115 0 114 -98q0 -113 -147 -225q-41 -31 -122 -61t-130 -30q-27 -68 -27 -147q0 -133 96 -133q186 0 338 350q12 29 33 29q10 0 10 -13q0 -4 -6 -18q-86 -186 -139 -256q-104 -135 -252 -135q-86 0 -140 55t-57 141zM221 350 q106 0 218 92.5t112 196.5q0 45 -33 45q-57 0 -174 -141q-61 -76 -123 -193zM357 903q0 68 65 68q70 0 70 -68t-66 -67q-70 0 -69 67zM621 903q0 68 66 68q69 0 69 -68t-65 -67q-70 0 -70 67z" />
<glyph unicode="&#xec;" horiz-adv-x="344" d="M23 150q0 61 28 116l178 340q39 72 39 74q20 25 72 25h104q-27 -14 -75 -74q-156 -258 -213 -398q-35 -86 -35 -122q0 -61 53 -66q109 -8 283 348q10 20 22 21q12 0 13 -15q-1 -6 -9 -24q-176 -375 -321 -375q-139 0 -139 150zM110 1051q0 43 39 43q27 0 182.5 -122 t155.5 -136q0 -18 -20 -19q-12 0 -133 64q-68 33 -136 67q-88 51 -88 103z" />
<glyph unicode="&#xed;" horiz-adv-x="344" d="M23 150q0 61 28 116l178 340q39 72 39 74q20 25 72 25h104q-27 -14 -75 -74q-156 -258 -213 -398q-35 -86 -35 -122q0 -61 53 -66q109 -8 283 348q10 20 22 21q12 0 13 -15q-1 -6 -9 -24q-176 -375 -321 -375q-139 0 -139 150zM383 864q0 6 4 12l252 187q45 33 84 33 q31 0 49 -17.5t4 -46.5q-12 -23 -191.5 -105.5t-191.5 -76.5q-10 4 -10 14z" />
<glyph unicode="&#xee;" horiz-adv-x="344" d="M23 150q0 61 28 116l178 340q39 72 39 74q20 25 72 25h104q-27 -14 -75 -74q-156 -258 -213 -398q-35 -86 -35 -122q0 -61 53 -66q109 -8 283 348q10 20 22 21q12 0 13 -15q-1 -6 -9 -24q-176 -375 -321 -375q-139 0 -139 150zM119 793q0 4 2 6l375 266q92 12 96 0 l90 -266q4 -10 -6 -14q-31 -6 -45 14l-115 178l-331 -178q-12 -10 -41 -12q-25 0 -25 6z" />
<glyph unicode="&#xef;" horiz-adv-x="344" d="M23 150q0 61 28 116l178 340q39 72 39 74q20 25 72 25h104q-27 -14 -75 -74q-156 -258 -213 -398q-35 -86 -35 -122q0 -61 53 -66q109 -8 283 348q10 20 22 21q12 0 13 -15q-1 -6 -9 -24q-176 -375 -321 -375q-139 0 -139 150zM277 968q0 68 65 68q70 0 70 -68t-66 -67 q-70 0 -69 67zM541 968q0 68 66 68q69 0 69 -68t-65 -67q-70 0 -70 67z" />
<glyph unicode="&#xf0;" />
<glyph unicode="&#xf1;" horiz-adv-x="686" d="M-80 -14q115 250 283 573q35 66 55 90q39 43 90 39q10 0 41 -6t45 -2q-80 -43 -248 -385q164 207 351 311q121 68 178 68q12 0 20 -2q-106 -197 -141 -266q-90 -180 -105 -263q-4 -25 -4 -49q0 -53 37 -53q109 0 281 354q10 20 20 21q8 0 8 -15q0 -14 -6 -26 q-88 -176 -129 -238q-100 -145 -202 -145q-127 0 -127 133q0 111 131 321q20 33 20 56q0 33 -39 20q-51 -16 -127 -88q-150 -139 -284 -405q-16 -31 -68 -33q-66 -2 -80 -10zM293 856q92 164 200 154q43 -4 125 -37t123 -37q76 -6 113 72q2 8 24 4q23 -2 19 -8 q-86 -174 -203 -164q-43 4 -123 40t-125 40q-66 4 -106 -68q-2 -8 -27 -6t-20 10z" />
<glyph unicode="&#xf2;" horiz-adv-x="686" d="M61 182q0 90 43 191q55 127 154 225q119 121 236 119q143 -4 143 -180q0 -231 -215 -435q27 -47 98 -47q92 0 187 150q31 49 98 198q6 10 14 11q14 0 15 -17q-1 -4 -5 -14q-70 -162 -114 -225q-96 -139 -215 -140q-70 0 -117 52q-94 -72 -178 -70q-143 4 -144 182z M174 135q0 -90 70 -90q53 0 116 53q-33 51 -32 101q2 88 71 88q61 0 62 -62q0 -12 -4 -22q35 47 63 110q66 141 66 238q0 100 -72 100q-76 0 -162 -102q-63 -74 -106 -168q-72 -154 -72 -246zM256 1051q0 43 39 43q27 0 182.5 -122t155.5 -136q0 -18 -20 -19q-12 0 -133 64 q-68 33 -136 67q-88 51 -88 103z" />
<glyph unicode="&#xf3;" horiz-adv-x="686" d="M61 182q0 90 43 191q55 127 154 225q119 121 236 119q143 -4 143 -180q0 -231 -215 -435q27 -47 98 -47q92 0 187 150q31 49 98 198q6 10 14 11q14 0 15 -17q-1 -4 -5 -14q-70 -162 -114 -225q-96 -139 -215 -140q-70 0 -117 52q-94 -72 -178 -70q-143 4 -144 182z M174 135q0 -90 70 -90q53 0 116 53q-33 51 -32 101q2 88 71 88q61 0 62 -62q0 -12 -4 -22q35 47 63 110q66 141 66 238q0 100 -72 100q-76 0 -162 -102q-63 -74 -106 -168q-72 -154 -72 -246zM512 870q0 6 4 12l252 187q45 33 84 33q31 0 49 -17.5t4 -46.5 q-12 -23 -191.5 -105.5t-191.5 -76.5q-10 4 -10 14z" />
<glyph unicode="&#xf4;" horiz-adv-x="686" d="M61 182q0 90 43 191q55 127 154 225q119 121 236 119q143 -4 143 -180q0 -231 -215 -435q27 -47 98 -47q92 0 187 150q31 49 98 198q6 10 14 11q14 0 15 -17q-1 -4 -5 -14q-70 -162 -114 -225q-96 -139 -215 -140q-70 0 -117 52q-94 -72 -178 -70q-143 4 -144 182z M174 135q0 -90 70 -90q53 0 116 53q-33 51 -32 101q2 88 71 88q61 0 62 -62q0 -12 -4 -22q35 47 63 110q66 141 66 238q0 100 -72 100q-76 0 -162 -102q-63 -74 -106 -168q-72 -154 -72 -246zM254 801q0 4 2 6l375 266q92 12 96 0l90 -266q4 -10 -6 -14q-31 -6 -45 14 l-115 178l-331 -178q-12 -10 -41 -12q-25 0 -25 6z" />
<glyph unicode="&#xf5;" horiz-adv-x="686" d="M61 182q0 90 43 191q55 127 154 225q119 121 236 119q143 -4 143 -180q0 -231 -215 -435q27 -47 98 -47q92 0 187 150q31 49 98 198q6 10 14 11q14 0 15 -17q-1 -4 -5 -14q-70 -162 -114 -225q-96 -139 -215 -140q-70 0 -117 52q-94 -72 -178 -70q-143 4 -144 182z M174 135q0 -90 70 -90q53 0 116 53q-33 51 -32 101q2 88 71 88q61 0 62 -62q0 -12 -4 -22q35 47 63 110q66 141 66 238q0 100 -72 100q-76 0 -162 -102q-63 -74 -106 -168q-72 -154 -72 -246zM285 899q92 164 200 154q43 -4 125 -37t123 -37q76 -6 113 72q2 8 24 4 q23 -2 19 -8q-86 -174 -203 -164q-43 4 -123 40t-125 40q-66 4 -106 -68q-2 -8 -27 -6t-20 10z" />
<glyph unicode="&#xf6;" horiz-adv-x="686" d="M61 182q0 90 43 191q55 127 154 225q119 121 236 119q143 -4 143 -180q0 -231 -215 -435q27 -47 98 -47q92 0 187 150q31 49 98 198q6 10 14 11q14 0 15 -17q-1 -4 -5 -14q-70 -162 -114 -225q-96 -139 -215 -140q-70 0 -117 52q-94 -72 -178 -70q-143 4 -144 182z M174 135q0 -90 70 -90q53 0 116 53q-33 51 -32 101q2 88 71 88q61 0 62 -62q0 -12 -4 -22q35 47 63 110q66 141 66 238q0 100 -72 100q-76 0 -162 -102q-63 -74 -106 -168q-72 -154 -72 -246zM400 938q0 68 65 68q70 0 70 -68t-66 -67q-70 0 -69 67zM664 938q0 68 66 68 q69 0 69 -68t-65 -67q-70 0 -70 67z" />
<glyph unicode="&#xf7;" />
<glyph unicode="&#xf8;" />
<glyph unicode="&#xf9;" horiz-adv-x="731" d="M47 131q0 53 74 201q-23 -2 -23 16q0 2 156 314q23 43 80 43h125q-74 -53 -131 -173q-37 -74 -129 -264q-43 -90 -43 -153q0 -68 47 -68t116 80q102 119 306 535q20 43 80 43h110q-68 -55 -141 -203q-121 -242 -137 -326q-6 -33 -7 -49q0 -72 45 -74q109 -2 271 342 q10 20 22 21q10 0 11 -17q0 -8 -2 -16q-8 -20 -60.5 -115.5t-75.5 -126.5q-98 -139 -190 -139q-115 0 -115 145q0 53 21 117q-150 -262 -277 -262q-133 0 -133 129zM292 1057q0 43 39 43q27 0 182.5 -122t155.5 -136q0 -18 -20 -19q-12 0 -133 64q-68 33 -136 67 q-88 51 -88 103z" />
<glyph unicode="&#xfa;" horiz-adv-x="731" d="M47 131q0 53 74 201q-23 -2 -23 16q0 2 156 314q23 43 80 43h125q-74 -53 -131 -173q-37 -74 -129 -264q-43 -90 -43 -153q0 -68 47 -68t116 80q102 119 306 535q20 43 80 43h110q-68 -55 -141 -203q-121 -242 -137 -326q-6 -33 -7 -49q0 -72 45 -74q109 -2 271 342 q10 20 22 21q10 0 11 -17q0 -8 -2 -16q-8 -20 -60.5 -115.5t-75.5 -126.5q-98 -139 -190 -139q-115 0 -115 145q0 53 21 117q-150 -262 -277 -262q-133 0 -133 129zM496 848q0 6 4 12l252 187q45 33 84 33q31 0 49 -17.5t4 -46.5q-12 -23 -191.5 -105.5t-191.5 -76.5 q-10 4 -10 14z" />
<glyph unicode="&#xfb;" horiz-adv-x="731" d="M47 131q0 53 74 201q-23 -2 -23 16q0 2 156 314q23 43 80 43h125q-74 -53 -131 -173q-37 -74 -129 -264q-43 -90 -43 -153q0 -68 47 -68t116 80q102 119 306 535q20 43 80 43h110q-68 -55 -141 -203q-121 -242 -137 -326q-6 -33 -7 -49q0 -72 45 -74q109 -2 271 342 q10 20 22 21q10 0 11 -17q0 -8 -2 -16q-8 -20 -60.5 -115.5t-75.5 -126.5q-98 -139 -190 -139q-115 0 -115 145q0 53 21 117q-150 -262 -277 -262q-133 0 -133 129zM303 824q0 4 2 6l375 266q92 12 96 0l90 -266q4 -10 -6 -14q-31 -6 -45 14l-115 178l-331 -178 q-12 -10 -41 -12q-25 0 -25 6z" />
<glyph unicode="&#xfc;" horiz-adv-x="731" d="M47 131q0 53 74 201q-23 -2 -23 16q0 2 156 314q23 43 80 43h125q-74 -53 -131 -173q-37 -74 -129 -264q-43 -90 -43 -153q0 -68 47 -68t116 80q102 119 306 535q20 43 80 43h110q-68 -55 -141 -203q-121 -242 -137 -326q-6 -33 -7 -49q0 -72 45 -74q109 -2 271 342 q10 20 22 21q10 0 11 -17q0 -8 -2 -16q-8 -20 -60.5 -115.5t-75.5 -126.5q-98 -139 -190 -139q-115 0 -115 145q0 53 21 117q-150 -262 -277 -262q-133 0 -133 129zM418 977q0 68 65 68q70 0 70 -68t-66 -67q-70 0 -69 67zM682 977q0 68 66 68q69 0 69 -68t-65 -67 q-70 0 -70 67z" />
<glyph unicode="&#xfd;" />
<glyph unicode="&#xfe;" />
<glyph unicode="&#xff;" />
<glyph unicode="&#x152;" horiz-adv-x="3057" d="M100 999q0 270 250 439q217 147 502 147q326 0 518 -184q199 -190 184 -516q80 53 134 98q-31 49 -31 98q0 242 311 414q274 152 578 152q156 0 278 -52q162 -68 162 -194q0 -117 -125 -205q-96 -68 -229 -98q-37 -8 -58 -8q-31 0 -30 12q0 27 77 35q88 10 162 95t74 175 q0 160 -231 182q-41 4 -76 4q-227 0 -449 -114q-260 -133 -282 -338l2 4q10 16 26 16q14 0 15 -12q0 -16 -43 -76q16 -115 149 -172q12 -6 232 -65q119 -33 112 -91q-10 -39 -117 -38q-31 0 -92 2t-92 2q-158 0 -270 -33q-223 -63 -316 -281q-39 -92 -39 -176 q0 -113 68 -211q135 -195 483 -194q215 0 452 80.5t395.5 215t158.5 236.5q0 49 -61.5 75t-61.5 30q0 10 27 10q24 0 55 -14q111 -53 111 -150q0 -147 -213 -291q-158 -104 -344 -164q-252 -78 -523 -77q-248 0 -430 83q-229 109 -264 324q-285 -299 -596 -299 q-254 0 -367 197q-74 129 -73 301q0 154 59 305q-162 106 -162 321zM211 997q0 -158 88 -235q117 244 319 426q176 156 324 155q74 0 141 -36q14 -8 15 -19q0 -20 -31 -10q-27 8 -59 8q-164 0 -365 -229q-160 -182 -240 -365q121 -59 312 -59q369 0 715 186q4 53 4 105 q0 279 -148 446q-154 178 -426 178q-252 0 -442 -147q-207 -158 -207 -404zM311 305q0 -256 168 -338q84 -41 180 -41q168 0 336 129q139 106 248 273q27 117 117 219q43 109 57 201q-344 -182 -717 -183q-190 0 -327 56q-61 -164 -62 -316zM1524 682q195 115 418 125 q-147 49 -228 141q-76 -78 -168 -135q-4 -61 -22 -131z" />
<glyph unicode="&#x153;" horiz-adv-x="925" d="M61 182q0 90 43 191q53 127 154 225q119 121 236 119q131 -4 143 -154l6 8q119 158 270 158q115 0 115 -98q0 -113 -149 -225q-43 -33 -119 -62q-82 -29 -131 -29q-29 -68 -29 -147q0 -133 98 -133q186 0 338 350q12 29 33 29q10 0 10 -13q0 -4 -6 -18 q-88 -190 -139 -256q-106 -135 -254 -135q-82 0 -135 51t-60 133q-152 -180 -280 -176q-143 4 -144 182zM174 135q0 -90 68 -90q115 0 250 217q20 106 86 217q8 41 8 72q0 100 -72 100q-76 0 -162 -102q-63 -74 -106 -168q-72 -154 -72 -246zM641 350q109 0 220.5 92.5 t111.5 196.5q0 45 -33 45q-57 0 -174 -141q-61 -76 -125 -193z" />
<glyph unicode="&#x178;" />
<glyph unicode="&#x2c6;" horiz-adv-x="993" d="M256 758q0 4 2 6l375 266q92 12 96 0l90 -266q4 -10 -6 -14q-31 -6 -45 14l-115 178l-331 -178q-12 -10 -41 -12q-25 0 -25 6z" />
<glyph unicode="&#x2dc;" horiz-adv-x="993" d="M324 864q92 164 200 154q43 -4 125 -37t123 -37q76 -6 113 72q2 8 24 4q23 -2 19 -8q-86 -174 -203 -164q-43 4 -123 40t-125 40q-66 4 -106 -68q-2 -8 -27 -6t-20 10z" />
<glyph unicode="&#x2000;" horiz-adv-x="991" />
<glyph unicode="&#x2001;" horiz-adv-x="1983" />
<glyph unicode="&#x2002;" horiz-adv-x="991" />
<glyph unicode="&#x2003;" horiz-adv-x="1983" />
<glyph unicode="&#x2004;" horiz-adv-x="661" />
<glyph unicode="&#x2005;" horiz-adv-x="495" />
<glyph unicode="&#x2006;" horiz-adv-x="330" />
<glyph unicode="&#x2007;" horiz-adv-x="330" />
<glyph unicode="&#x2008;" horiz-adv-x="247" />
<glyph unicode="&#x2009;" horiz-adv-x="396" />
<glyph unicode="&#x200a;" horiz-adv-x="110" />
<glyph unicode="&#x2010;" horiz-adv-x="831" d="M301 457q0 39 35 39q43 0 450 -9q43 0 43 -32q1 -23 -34 -23q-162 0 -459 -35q-16 -2 -27 23q-8 18 -8 37z" />
<glyph unicode="&#x2011;" horiz-adv-x="831" d="M301 457q0 39 35 39q43 0 450 -9q43 0 43 -32q1 -23 -34 -23q-162 0 -459 -35q-16 -2 -27 23q-8 18 -8 37z" />
<glyph unicode="&#x2012;" horiz-adv-x="831" d="M301 457q0 39 35 39q43 0 450 -9q43 0 43 -32q1 -23 -34 -23q-162 0 -459 -35q-16 -2 -27 23q-8 18 -8 37z" />
<glyph unicode="&#x2013;" horiz-adv-x="1093" d="M301 457q0 39 35 39q297 0 704 -9q43 0 43 -32q1 -23 -34 -23q-416 0 -713 -35q-16 -2 -27 23q-8 18 -8 37z" />
<glyph unicode="&#x2014;" horiz-adv-x="1677" d="M301 457q0 39 35 39q883 0 1290 -9q43 0 43 -32q0 -23 -35 -23q-154 0 -673 -12q-551 -12 -625 -23q-16 -2 -25.5 20.5t-9.5 39.5z" />
<glyph unicode="&#x2018;" horiz-adv-x="378" d="M94 1229q0 92 80 168q68 63 166 96q20 6 20 -6q0 -13 -20 -19q-147 -49 -184 -176q31 18 61 19q61 0 62 -58q0 -43 -36 -76.5t-79 -33.5q-70 0 -70 86z" />
<glyph unicode="&#x2019;" horiz-adv-x="323" d="M322 1120q0 10 16 17q139 47 156 178q-27 -20 -58 -21q-35 0 -55.5 24.5t-13.5 59.5q6 35 34.5 59.5t63.5 24.5q84 1 84 -110q0 -166 -207 -238q-20 -6 -20 6z" />
<glyph unicode="&#x201a;" horiz-adv-x="315" d="M158 8q0 12 16 16q141 49 158 178q-29 -20 -60 -20q-35 0 -55 25.5t-14 60.5t34.5 59.5t63.5 24.5q84 0 84 -113q0 -168 -205 -237q-23 -8 -22 6z" />
<glyph unicode="&#x201c;" horiz-adv-x="622" d="M92 1229q0 92 80 168q68 63 166 96q20 6 20 -6q0 -13 -20 -19q-145 -49 -182 -176q29 18 59 19q63 0 64 -58q0 -43 -37 -76.5t-80 -33.5q-70 0 -70 86zM336 1229q0 92 80 168q68 63 166 96q20 6 20 -6q0 -13 -20 -19q-145 -49 -183 -176q29 18 60 19q63 0 63 -58 q0 -43 -36.5 -76.5t-79.5 -33.5q-70 0 -70 86z" />
<glyph unicode="&#x201d;" horiz-adv-x="804" d="M322 1120q0 10 16 17q139 47 156 178q-27 -20 -58 -21q-35 0 -55.5 24.5t-13.5 59.5q6 35 34.5 59.5t63.5 24.5q84 1 84 -110q0 -166 -207 -238q-20 -6 -20 6zM565 1120q0 10 17 17q139 47 155 178q-27 -20 -57 -21q-35 0 -55.5 24.5t-14.5 59.5t35 59.5t64 24.5 q84 1 84 -110q0 -166 -207 -238q-20 -6 -21 6z" />
<glyph unicode="&#x201e;" horiz-adv-x="501" d="M82 59l55 485q4 37 36 67t69 30q57 -1 57 -58t-80 -260q-41 -104 -108 -264h-29zM397 59l58 487q4 41 33.5 68t70.5 27q57 -1 57 -60q0 -51 -81 -258q-39 -96 -107 -264h-31z" />
<glyph unicode="&#x2022;" horiz-adv-x="1228" d="M406 586q0 82 57 139t139 57t141.5 -57t59.5 -139t-59.5 -139.5t-141.5 -57.5t-139 57.5t-57 139.5z" />
<glyph unicode="&#x2026;" horiz-adv-x="1099" d="M45 55q6 35 35 59.5t63 24.5q35 0 55.5 -24.5t14.5 -59.5t-34.5 -59.5t-63.5 -24.5t-55.5 24.5t-14.5 59.5zM442 55q6 35 35 59.5t64 24.5t55 -24.5t14 -59.5t-34.5 -59.5t-63.5 -24.5t-55.5 24.5t-14.5 59.5zM864 55q6 35 35 59.5t64 24.5t55 -24.5t14 -59.5 t-34.5 -59.5t-63.5 -24.5t-55.5 24.5t-14.5 59.5z" />
<glyph unicode="&#x202f;" horiz-adv-x="396" />
<glyph unicode="&#x2039;" />
<glyph unicode="&#x203a;" />
<glyph unicode="&#x205f;" horiz-adv-x="495" />
<glyph unicode="&#x2122;" horiz-adv-x="1953" d="M37 721q0 82 56.5 145.5t137.5 77.5q-4 23 -4 45q0 117 84 185q76 61 197 61q100 0 348 -90q63 41 117 41q51 0 51 -37t-68 -37q-37 0 -92 18q-55 -57 -135 -233q-76 -162 -180 -248q-135 -111 -301 -110q-82 0 -146.5 51t-64.5 131zM76 707q0 -154 186 -154 q176 0 320 227q59 96 118 191q83 121 144 166q-205 68 -309 67q-109 0 -187 -59q-86 -66 -86 -170q0 -14 2 -27l17 2q109 2 135 -90q43 16 82 59.5t39 84.5q0 8 6 8q4 0 4 -4q0 -43 -43 -92.5t-86 -65.5q2 -14 2 -29q0 -66 -49 -108.5t-115 -42.5q-6 0 -6 6t10 6 q147 20 148 145q0 10 -2 19q-23 -8 -48 -8q-92 0 -122 94q-70 -27 -115 -89.5t-45 -135.5zM266 938q20 -90 96 -90q21 0 41 8q-20 84 -116 84q-10 0 -21 -2zM549 563q8 4 33 4q121 0 249 111q61 53 218 235q133 156 213 209q-209 94 -334 95q-66 0 -84 -39q-4 -6 -8 -7 q-10 0 -11 21q0 43 99 43q94 0 346 -109q53 33 102 33q84 0 84 -55q0 -37 -41 -37q-27 0 -100 31q-45 -55 -107 -242q-53 -162 -125 -217q113 63 273 254q303 360 489 360q99 0 99 -55q0 -16 -12.5 -38.5t-26.5 -22.5q-4 0 -4 4q0 -12 13 12.5t13 34.5q0 37 -51 37 q-197 0 -520 -359q-119 -131 -156 -164q-111 -96 -194 -96q-27 0 -29 4q29 14 65 35q18 16 58.5 97t122.5 241q37 72 80 121l-29 12q-119 -72 -242 -244q-227 -315 -452 -315q-27 0 -31 6zM874 1139q53 -18 82 -19q58 0 58 29q0 33 -45 33q-47 0 -95 -43zM1284 1120l25 -10 q23 25 37 25l-25 -29q70 -25 86 -25q25 0 25 25q0 43 -62 43q-37 0 -86 -29zM1376 641q0 90 47 186q20 41 58 88q33 41 110 125q97 103 115 109q-4 -8 -23 -27q-104 -113 -192 -305q-66 -141 -66 -207q0 -31 17 -30q27 0 71 45h3q2 4 6 4q2 0 2 -2q0 -12 -43 -37t-60 -25 q-45 0 -45 76z" />
<glyph unicode="&#x25fc;" horiz-adv-x="727" d="M0 0v727h727v-727h-727z" />
</font>
</defs>
</svg>
